<?xml version="1.0" encoding="utf-8"?>
<!-- Generator: Adobe Illustrator 27.4.1, SVG Export Plug-In . SVG Version: 6.00 Build 0)  -->
<svg version="1.1" id="soft-drink" xmlns="http://www.w3.org/2000/svg" xmlns:xlink="http://www.w3.org/1999/xlink" x="0px" y="0px"
	 viewBox="0 0 329.3 1000" style="enable-background:new 0 0 329.3 1000;" xml:space="preserve">
<style type="text/css">
	.st0{fill:#C68554;}
	.st1{fill:#EDD5BE;}
	.st2{fill:#A33333;}
	.st3{opacity:0.25;fill:#FFFFFF;enable-background:new    ;}

	<!-- Custom CSS for animations and other elements goes here-->
	#soft-drink {
		cursor: pointer;
	}
	
	#soft-drink:hover #bottom {
		animation: press .6s ease-in-out infinite alternate;
		transform-origin: bottom;
		transform-box: fill-box;
	}

	#soft-drink:hover #cap {
		animation: bottleCap .6s ease-in-out infinite alternate;
		transform-origin: bottom;
		transform-box: fill-box;
	}

	#soft-drink:hover .liquid {
		fill: #F4b641;
	}

	#soft-drink:hover .red {
		fill: #761617;
	}

	.liquid {
		transition: fill .2s ease-in-out;
	}

	.red {
		transition: fill .2s ease-in-out;
	}

	@keyframes press {
		0% {
			transform: rotateX(0deg);
		}
		100% {
			transform: rotateX(-40deg);
		}
	}

	@keyframes bottleCap {
		0% {
			transform: translateY(0);
		}
		100% {
			transform: translateY(225px);
		}
	}

</style>
<script>const softDrink = document.querySelector(&quot;#soft-drink&quot;);

	function logIdSoftDrink() {
		console.log(&quot;User clicked on &quot; + this.id);
	}

	softDrink.addEventListener(&quot;click&quot;, logIdSoftDrink);
	</script>
<g id="bottle">
	<g id="bottom">
		<g id="back">
			<path class="st0 liquid" d="M312.7,416.3c0,0.3,0,0.6,0,1c-0.1,0-0.2,0-0.3,0c0,1.3-0.1,2.6-0.2,3.8c-0.2,6.2-0.5,12.4-0.7,18.6
				c0,0.2,0,0.4-0.1,0.6c-0.1,1.4-0.2,2.8-0.2,4.2c0,0.2,0,0.4,0,0.6c-1.9,14.7-3.6,112.9-5.3,176c-0.7,25.7-1.4,45.6-2.2,51.6
				c-1.9,15-4,30.1-5.4,45.2c-2.1,23.2-2.4,46.4-1,69.6c1.4,22.7,6.4,44.7,10.4,67c1.4,7.9,2.2,15.9,3.2,23.8c0,0.1,0.1,0.2,0.1,0.4
				c0,0,0,0.1-0.1,0.2c0.2,2.2,0.5,4.4,0.8,6.6c0,0.4,0,0.7,0,1c0.1,1.7,0.2,3.5,0.4,5.2c0,0.2,0,0.4,0,0.6
				c-0.1,10.1-0.3,20.2-0.4,30.3c0,0.2,0,0.4-0.1,0.6c-5.3,24.9-19.7,42-43.6,50.6c-4.4,1.6-9.2,2.1-13.7,3c-0.2,0-0.5,0-0.7,0
				c-1.9,0-3.8,0.1-5.7,0.2c-1.9,0-3.8,0-5.8,0.1c-9.5-0.2-19-0.4-28.5-0.4h-16.8c-13.3,0-26.7,0-40,0c-21.9,0-43.8,0-65.7,0
				c-0.9,0-1.7,0.2-2.6,0.3c-0.5,0-1,0-1.4,0c-0.2,0-0.4,0-0.6,0c-3.2,0-6.3,0-9.5,0c-0.4,0-0.7-0.1-1.1-0.2c-0.4,0-0.7,0-1,0
				c-0.6,0-1.2,0-1.8-0.1c-8.2-1.6-16-4.2-23.2-8.6c-15.7-9.7-25.8-23.5-30.2-41.5c-0.1-0.1-0.2-0.2-0.2-0.4c0,0,0-0.1,0.1-0.2
				l-0.2,0c0-2.4-0.1-4.7-0.2-7.1c0-6.4-0.1-12.9-0.2-19.4c0-1.9,0-3.8,0-5.8v-1.5c0-0.2,0-0.5,0-0.7c0-0.2,0-0.3-0.1-0.4
				c0.1-1.7,0.2-3.4,0.2-5.1c0.1-2.4,0.2-4.8,0.3-7.2c0-0.2,0.1-0.4,0.2-0.6c0.4-3.5,0.8-7,1.2-10.5c0-0.2,0.1-0.4,0.1-0.6
				c0.8-5.3,1.7-10.6,2.5-15.8c0-0.1-0.1-0.2-0.1-0.4c0,0,0.1-0.1,0.2-0.1c1.7-8.8,3.5-17.6,5.2-26.4c0-0.2,0.1-0.4,0.1-0.6
				c1.3-9.3,2.6-18.6,3.9-27.9c0-0.2,0-0.4,0-0.6c0.6-10.7,1.1-21.5,1.7-32.2c0-0.2,0-0.4,0-0.6c-0.5-12.5-1-25-1.6-37.4
				c0-0.2,0-0.4-0.1-0.6c-0.4-5.1-0.8-10.2-1.2-15.3c0-0.1-0.1-0.3-0.2-0.4c0,0,0.1-0.1,0.1-0.2c-0.2-1.6-0.4-3.1-0.6-4.6
				c0-0.2-0.1-0.4-0.2-0.6c0-0.8-0.1-1.6-0.2-2.3c0-0.1-0.1-0.2-0.2-0.4c0,0,0-0.1,0.1-0.2c-1-7.4-1.9-14.7-2.8-22
				c0-0.2-0.1-0.4-0.1-0.6c-2-14.1-4.1-28.2-6.1-42.3c0-0.1-0.1-0.3-0.2-0.4c0,0,0.1-0.1,0.1-0.2c-0.2-1.4-0.4-2.8-0.6-4.2
				c0-0.2-0.1-0.4-0.1-0.6c-0.3-2.9-0.6-5.8-0.8-8.7c-0.1-1.1-0.2-2.2-0.3-3.2c0-0.2,0-0.4-0.1-0.6c-0.1-3-0.8-171.6-1-174.6
				c0-2.1,0-4.1,0-6.2c-0.1-5.1-1-10.2-1.4-15.3c-0.1-1.2-0.2-2.4-0.2-3.6c0-1.2-0.1-2.5-0.1-3.8v-4.3c0-0.4,0-0.7,0-1
				c0-1.3,0-2.5,0-3.8c0-0.3,0-0.6,0-1c0-0.2,0-0.3,0-0.5c0.1-1,0.2-1.9,0.4-2.8c0-0.2,0.1-0.4,0.2-0.6c0.6-2.8,1.1-5.6,1.6-8.4
				c0.1-0.4,0.2-0.8,0.3-1.2c6.5-23.3,18.6-44.1,30.2-65C63.4,300.4,76.9,275.5,87,249c1.5-4,3-7.9,4.6-11.8c0.3,0,0.6,0,0.9-0.1
				c0.2,0,0.4-0.1,0.6-0.1h0.1c1.3,0,2.7-0.2,4-0.2h129c3.2,0,6.3,0,9.4,0l0,0.1c0.2,0.1,0.4,0.1,0.6,0.2c0.5,0.6,1.1,1.2,1.3,1.9
				c10.2,29.8,25.1,57.6,40.4,85c9.7,17.4,19.7,34.8,26.8,53.5c0,0.2,0.1,0.4,0.2,0.6c0.9,2.7,1.8,5.4,2.8,8.1c0,0.1-0.1,0.2,0,0.2
				c0,0.1,0.1,0.2,0.2,0.4c1.2,5.6,2.5,11.2,3.8,16.8c0,0.1-0.1,0.1-0.1,0.2c0,0.1,0.1,0.3,0.2,0.4c0.3,3.8,0.6,7.7,0.9,11.5
				c0,0-0.1,0.1-0.1,0.2C312.5,416,312.6,416.2,312.7,416.3z"/>
			<path class="st0 liquid" d="M307.9,386.8c0-0.1,0.1-0.2,0-0.2c0-0.1-0.1-0.2-0.2-0.4c0,0.1-0.1,0.2-0.1,0.2
				C307.8,386.6,307.9,386.7,307.9,386.8z"/>
			<path class="st0 liquid" d="M305.1,377.9c0-0.1-0.1-0.2-0.2-0.4c0,0.2,0.1,0.4,0.2,0.6C305.1,378.1,305.1,378,305.1,377.9z"/>
		</g>
		<path id="top" class="st1" d="M236.4,236.8h-0.6c-3.1,0-6.3,0-9.4,0H98.9c-1.4,0-2.7,0.1-4.1,0.2c-0.2,0-0.4,0.1-0.6,0.1
			c-0.3,0-0.6,0-0.9,0.1c0-0.1,0-0.1,0-0.2c0.9-3.1,2-6.2,2.8-9.4c4.4-17.2,9.2-34.3,12.8-51.6c2.5-12,3.6-24.3,5-36.5
			c0.8-7.5,1.1-15,1.5-22.5c0.4-9.4,0.7-18.9,1-28.4c0.8,0,1.6,0,2.3,0c0.2,0,0.4,0,0.6,0c3,0,5.9,0.1,8.8,0.1h85.3
			c0.3,1.8,0.8,3.5,0.9,5.3c0.4,10.3,0.3,20.7,1.1,31c1.9,24.8,5.1,49.6,11.3,73.7c2.9,11.2,6.4,22.3,9.6,33.4
			C236.6,233.6,236.3,235.3,236.4,236.8z"/>
		<polygon id="label" class="st2 red" points="314.9,421.2 310.5,621.2 17.1,621.2 14.4,421.2 		"/>
		<path id="light" class="st3" d="M253.9,891.8c0,0.2,0,0.4,0,0.6c-0.1,10.1-0.3,20.2-0.4,30.3c0,0.2-0.1,0.4-0.1,0.6
			c-5.3,24.9-19.7,42-43.6,50.6c-4.2,1.5-8.7,2-13,2.9c-0.2,0-0.4,0.1-0.7,0.1h-0.7c-1.9,0-3.8,0.1-5.7,0.2c-1.9,0-3.8,0-5.8,0.1
			c-9.1-0.2-18.2-0.4-27.2-0.4H74.9c-0.6,0-1.2,0-1.8-0.1c-8.2-1.6-16-4.2-23.2-8.6c-15.7-9.7-25.8-23.5-30.2-41.5
			c-0.1-0.1-0.2-0.2-0.2-0.4c0,0,0-0.1,0.1-0.2l-0.2,0c0-2.4-0.1-4.7-0.2-7.1c0-6.4-0.1-12.9-0.2-19.4c0-1.9,0-3.8,0-5.8v-2.2
			c0-0.2,0-0.3-0.1-0.4c0.1-1.7,0.2-3.4,0.2-5.1c0.1-2.4,0.2-4.8,0.3-7.2c0-0.2,0.1-0.4,0.2-0.6c0.4-3.5,0.8-7,1.2-10.5
			c0-0.2,0.1-0.4,0.1-0.6c0.8-5.3,1.7-10.6,2.5-15.8c0-0.1-0.1-0.2-0.1-0.4c0,0,0.1-0.1,0.2-0.1c1.7-8.8,3.5-17.6,5.2-26.4
			c0-0.2,0.1-0.4,0.1-0.6c1.3-9.3,2.6-18.6,3.9-27.9c0-0.2,0-0.4,0-0.6c0.6-10.7,1.1-21.5,1.7-32.2v-0.6L33,725c0-0.2,0-0.4-0.1-0.6
			c-0.4-5.1-0.8-10.2-1.2-15.3c0-0.1-0.1-0.3-0.2-0.4c0,0,0.1-0.1,0.1-0.2c-0.2-1.6-0.4-3.1-0.6-4.6c0-0.2-0.1-0.4-0.2-0.6
			c0-0.8-0.1-1.6-0.2-2.3c0-0.1-0.1-0.2-0.2-0.4c0,0,0-0.1,0.1-0.2c-1-7.4-1.9-14.7-2.8-22c0-0.2-0.1-0.4-0.1-0.6
			c-2-14.1-4.1-28.2-6.1-42.3c0-0.1-0.1-0.3-0.2-0.4c0,0,0.1-0.1,0.1-0.2c-0.2-1.4-0.4-2.8-0.6-4.2c0-0.2-0.1-0.4-0.1-0.6
			c-0.3-2.9-0.6-5.8-0.8-8.7h-2.9l-2.6-200h2.8c-0.1-1.2-0.2-2.4-0.2-3.6c0-1.2-0.1-2.5-0.1-3.8v-4.3c0-0.4,0-0.7,0-1
			c0-1.3,0-2.5,0-3.8v-1.5c0.1-1,0.2-1.9,0.4-2.8c0-0.2,0.1-0.4,0.2-0.6c0.6-2.8,1.1-5.6,1.6-8.4c0.1-0.4,0.2-0.8,0.3-1.2
			c6.5-23.3,18.6-44.1,30.2-65C63.5,300.4,77,275.5,87,249c1.5-4,3-7.9,4.6-11.8c0.3,0,0.6,0,0.9-0.1c0.2,0,0.4-0.1,0.6-0.1h0.1
			c0.9-3.1,2-6.2,2.8-9.4c4.4-17.2,9.2-34.3,12.8-51.6c2.5-12,3.6-24.3,5-36.5c0.8-7.5,1.1-15,1.5-22.5c0.4-9.4,0.7-18.8,1-28.1
			h38.9c0.2,0.8,0.4,1.6,0.5,2.4c0.2,0.9,0.3,1.8,0.4,2.7c0.4,10.3,0.3,20.7,1.1,31c1.9,24.8,5.1,49.6,11.3,73.7
			c2.9,11.2,6.4,22.3,9.5,33.4c0.4,1.4,0.2,3.1,0.2,4.6h-0.6l0,0.1c0.2,0.1,0.4,0.1,0.6,0.2c0.4,0.6,1.1,1.2,1.3,1.9
			c10.3,29.8,25.1,57.6,40.4,85c9.7,17.4,19.7,34.8,26.8,53.5c0,0.2,0.1,0.4,0.2,0.6c0.9,2.7,1.8,5.4,2.8,8.1c0,0.1-0.1,0.2-0.1,0.2
			c0,0,0,0.1,0.1,0.1c0,0.1,0.1,0.2,0.1,0.2c0,0.1,0,0.1,0,0.2c1.2,5.5,2.4,11.1,3.7,16.6c0,0.1-0.1,0.1-0.1,0.2
			c0,0.1,0.1,0.3,0.2,0.4c0.3,3.8,0.6,7.7,0.9,11.5c0,0-0.1,0.1-0.1,0.2c0,0.2,0.1,0.3,0.2,0.4v1h-0.3c0,1.3-0.1,2.6-0.2,3.8h2.7
			l-4.4,200h-4.7c-0.7,25.7-1.4,45.6-2.2,51.6c-1.9,15-4,30.1-5.4,45.2c-2.1,23.2-2.4,46.4-1,69.6c1.4,22.7,6.4,44.7,10.4,67
			c1.4,7.9,2.2,15.9,3.2,23.8c0,0.1,0.1,0.2,0.2,0.4c0,0-0.1,0.1-0.1,0.2c0.2,2.2,0.5,4.4,0.8,6.6c0,0.4,0,0.7,0.1,1
			C253.7,888.3,253.8,890.1,253.9,891.8z"/>
		<path id="shine" class="st3" d="M49.4,442.7H48c-5.3,0-9.6,4.3-9.6,9.6v138.5c0,5.3,4.3,9.6,9.6,9.6h1.4c5.3,0,9.6-4.3,9.6-9.6
			V452.3C59,447,54.7,442.7,49.4,442.7z"/>
	</g>
	<path id="cap" class="st2 red" d="M230.8,63.8c0,0.1,0.1,0.2,0.1,0.3c0,0.5,0,1,0,1.5c0,0-0.1,0.1-0.1,0.1c0,0.1,0.1,0.2,0.1,0.3
		c-0.2,3.4-0.5,6.8-0.7,10.2c-0.2,0.5-0.3,0.9-0.4,1.4c-3,7.4-8.9,10.4-16.4,11.1h-85.3c-2.9,0-5.9-0.1-8.8-0.1c-0.2,0-0.4,0-0.6,0
		c-0.8,0-1.6,0-2.3,0c-3.6-1.4-7.5-2.3-10.6-4.4c-3.8-2.5-5.7-6.8-5.7-11.4c0-7.4-0.5-14.8,0.5-22.1c1.8-12.4,9.1-20.9,20.7-25.6
		c0.4-0.2,0.9-0.3,1.3-0.4c1.6-0.4,3.2-0.8,4.8-1.2c0.2,0,0.4-0.1,0.6-0.2c5.3,0,41.4-0.4,54.2-0.5c6.3,0,12.6,0.1,19,0.1
		c0.2,0,0.5,0.1,0.8,0.2c0.2,0,0.3,0.1,0.5,0.1c0.4,0,0.7,0.1,1.1,0.1c17.8,4,27,16,27.6,36c0,1.4,0,2.9,0,4.3
		C230.8,63.7,230.8,63.8,230.8,63.8z"/>
</g>
</svg>
