<svg xmlns="http://www.w3.org/2000/svg" width="25.794" height="23.217" viewBox="0 0 25.794 23.217">
  <g id="cart-icon" transform="translate(0 0)">
    <path id="Path_121" data-name="Path 121" d="M0,.523A.789.789,0,0,1,.82,0,3.252,3.252,0,0,1,4.194,2.529c0,.015.017.027.039.062H25.01c.638,0,.906.349.733.956q-1.25,4.377-2.5,8.754a.681.681,0,0,1-.8.6H5.931a4.5,4.5,0,0,0,.429,1.671,1.946,1.946,0,0,0,1.745.917H21.413c.378,0,.756,0,1.134,0a.639.639,0,1,1,0,1.275q-7.322,0-14.644,0a3.22,3.22,0,0,1-3.107-2.806c-.459-2.8-.932-5.593-1.4-8.39-.139-.836-.282-1.671-.415-2.507A1.971,1.971,0,0,0,.918,1.285,1.24,1.24,0,0,1,.358,1.2C.206,1.118.117.922,0,.775V.523M24.3,3.9H4.428l1.287,7.718h.3q7.89,0,15.779.006a.333.333,0,0,0,.392-.292c.527-1.881,1.068-3.757,1.6-5.636.169-.594.336-1.188.508-1.8" transform="translate(0 0)" fill="#fcf3e4"/>
    <path id="Path_122" data-name="Path 122" d="M332.191,360.18a2.575,2.575,0,1,1,2.593,2.582,2.568,2.568,0,0,1-2.593-2.582m3.863.007a1.29,1.29,0,0,0-2.581-.027,1.311,1.311,0,0,0,1.279,1.319,1.3,1.3,0,0,0,1.3-1.292" transform="translate(-315.409 -339.546)" fill="#fcf3e4"/>
    <path id="Path_123" data-name="Path 123" d="M102.313,360.176a2.58,2.58,0,1,1,2.569,2.586,2.576,2.576,0,0,1-2.569-2.586m3.864.024a1.283,1.283,0,0,0-1.259-1.3,1.29,1.29,0,1,0,1.259,1.3" transform="translate(-97.144 -339.546)" fill="#fcf3e4"/>
  </g>
</svg>
