<?xml version="1.0" encoding="utf-8"?>
<!-- Generator: Adobe Illustrator 27.4.1, SVG Export Plug-In . SVG Version: 6.00 Build 0)  -->
<svg version="1.1" id="chocolate-flavor" xmlns="http://www.w3.org/2000/svg" xmlns:xlink="http://www.w3.org/1999/xlink" x="0px"
	 y="0px" viewBox="0 0 1711 2500" style="enable-background:new 0 0 1711 2500;" xml:space="preserve">
<style type="text/css">
	.st0{fill:#6B341C;}
	.st1{fill:#7F3E28;}
	.st2{opacity:0.25;}
	.st3{fill:#FFFFFF;}

	<!-- Custom CSS for animations and other elements goes here-->
	#chocolate-flavor {
		cursor: pointer;
	}
	
	#chocolate-flavor:hover #bar {
		animation: barFloat .6s ease-in-out forwards;
		transform-origin: center;
		transform-box: fill-box;
	}

	#chocolate-flavor:hover .X0 {
		animation: piecesFloat .6s ease-in-out forwards;
		transform-origin: center;
		transform-box: fill-box;
	}

	#chocolate-flavor:hover #chocolate {
		animation: shake .6s ease-in-out alternate infinite;
		transform-origin: center;
		transform-box: fill-box;
	}

	@keyframes barFloat {
		0% {
			fill: #6b341c;
		}
		100% {
			fill: #761617;
		}
	}

	@keyframes piecesFloat {
		0% {
			fill: #7F3E28;
		}
		100% {
			fill: #AA3A3B;
		}
	}

	@keyframes shake {
		0% {
			transform: scale(1);
		}

		100% {
			transform: scale(.9);
		}
	}
</style>

<script>const chocolateFlavor = document.querySelector(&quot;#chocolate-flavor&quot;);

	function logIdChocolateFlavor() {
		console.log(&quot;User clicked on &quot; + this.id);
	}

	chocolateFlavor.addEventListener(&quot;click&quot;, logIdChocolateFlavor);
	</script>

<g id="chocolate">
	<path id="bar" class="st0" d="M1452.9,51.4L228.6,63.3C123,64.3,38.2,150.8,39.2,256.4l19.4,2002.9c1,105.6,87.5,190.4,193.1,189.4
		l1224.3-11.9c105.6-1,190.4-87.5,189.4-193.1L1646,240.8C1644.9,135.1,1558.5,50.4,1452.9,51.4z"/>
	<g id="pieces">
		<g id="square_1">
			<g id="square">
				<path class="st1 x0" d="M1491.9,2054.9l1,105.6c0.9,92.9-73.6,168.9-166.5,169.8l-285.1,2.8c-21.7,0.2-42.5-3.7-61.7-11.1
					c-62.6-23.9-107.5-84.4-108.2-155.5l-1-105.6c-0.9-92.9,73.7-168.9,166.6-169.8l285.1-2.8c41.5-0.4,79.8,14.3,109.3,39.1
					C1468,1957.9,1491.4,2003.5,1491.9,2054.9z"/>
			</g>
			<g id="shadow" class="st2">
				<path d="M1492.9,2160.5c0.9,92.9-73.7,168.9-166.5,169.8l-285.1,2.8c-21.7,0.2-42.5-3.7-61.6-11.1c-7.3-2.8-14.4-6.1-21.2-9.8
					c-8.4-8.4-15.9-17.7-22.4-27.7c2.1,0.9,4.3,1.8,6.5,2.6c19.2,7.4,39.9,11.3,61.7,11.1l285.1-2.8c92.9-0.9,167.4-77,166.5-169.8
					l-1-105.6c-0.3-33-10.2-63.8-26.9-89.6c4.9,2.1,9.7,4.4,14.3,7c-3.5-3.5-7.1-6.8-10.9-10c-3.9-3.2-7.9-6.3-12.1-9.2
					c0-0.1-0.1-0.1-0.1-0.2c4.3,2.9,8.4,6.1,12.3,9.4c36.5,30.4,59.9,76.1,60.4,127.5L1492.9,2160.5z"/>
			</g>
			<g id="light" class="st2">
				<path class="st3" d="M1442.4,1937.4c-24.4-13.4-52.6-20.9-82.4-20.6l-285.1,2.8c-92.9,0.9-167.5,76.9-166.6,169.8l1,105.6
					c0.4,45.9,19.3,87.3,49.4,117.4c-51.5-28.3-86.7-82.8-87.3-145.8l-1-105.6c-0.9-92.9,73.7-168.9,166.6-169.8l285.1-2.8
					c41.5-0.4,79.8,14.3,109.3,39.1C1435.3,1930.6,1438.9,1933.9,1442.4,1937.4z"/>
			</g>
		</g>
		<g id="square_00000000909120824478139350000005457772982949499780_">
			<g id="square_00000100363425344413718950000007197784200163299728_">
				<path class="st1" d="M785.9,2054.9l1,105.6c0.9,92.9-73.6,168.9-166.5,169.8l-285.1,2.8c-21.7,0.2-42.5-3.7-61.7-11.1
					c-62.6-23.9-107.5-84.4-108.2-155.5l-1-105.6c-0.9-92.9,73.7-168.9,166.6-169.8l285.1-2.8c41.5-0.4,79.8,14.3,109.3,39.1
					C762,1957.9,785.4,2003.5,785.9,2054.9z"/>
			</g>
			<g id="shadow_00000097484574781830559560000002819071612540168604_" class="st2">
				<path d="M787,2160.5c0.9,92.9-73.7,168.9-166.5,169.8l-285.1,2.8c-21.7,0.2-42.5-3.7-61.6-11.1c-7.3-2.8-14.4-6.1-21.2-9.8
					c-8.4-8.4-15.9-17.7-22.4-27.7c2.1,0.9,4.3,1.8,6.5,2.6c19.2,7.4,39.9,11.3,61.7,11.1l285.1-2.8c92.9-0.9,167.4-77,166.5-169.8
					l-1-105.6c-0.3-33-10.2-63.8-26.9-89.6c4.9,2.1,9.7,4.4,14.3,7c-3.5-3.5-7.1-6.8-10.9-10c-3.9-3.2-7.9-6.3-12.1-9.2
					c0-0.1-0.1-0.1-0.1-0.2c4.3,2.9,8.4,6.1,12.3,9.4c36.5,30.4,59.9,76.1,60.4,127.5L787,2160.5z"/>
			</g>
			<g id="light_00000093158787218107301930000008933012832092404917_" class="st2">
				<path class="st3" d="M736.5,1937.4c-24.4-13.4-52.6-20.9-82.4-20.6l-285.1,2.8c-92.9,0.9-167.5,76.9-166.6,169.8l1,105.6
					c0.4,45.9,19.3,87.3,49.4,117.4c-51.5-28.3-86.7-82.8-87.3-145.8l-1-105.6c-0.9-92.9,73.7-168.9,166.6-169.8l285.1-2.8
					c41.5-0.4,79.8,14.3,109.3,39.1C729.3,1930.6,733,1933.9,736.5,1937.4z"/>
			</g>
		</g>
		<g id="square_00000123426716345254599820000004947460846447474323_">
			<g id="square_00000108293542698609245160000000712272036208098704_">
				<path class="st1 x0" d="M1491.9,1481.1l1,105.6c0.9,92.9-73.6,168.9-166.5,169.8l-285.1,2.8c-21.7,0.2-42.5-3.7-61.7-11.1
					c-62.6-23.9-107.5-84.4-108.2-155.5l-1-105.6c-0.9-92.9,73.7-168.9,166.6-169.8l285.1-2.8c41.5-0.4,79.8,14.3,109.3,39.1
					C1468,1384,1491.4,1429.7,1491.9,1481.1z"/>
			</g>
			<g id="shadow_00000032640895072193879670000009913371281519202975_" class="st2">
				<path d="M1492.9,1586.7c0.9,92.9-73.7,168.9-166.5,169.8l-285.1,2.8c-21.7,0.2-42.5-3.7-61.6-11.1c-7.3-2.8-14.4-6.1-21.2-9.8
					c-8.4-8.4-15.9-17.7-22.4-27.7c2.1,0.9,4.3,1.8,6.5,2.6c19.2,7.4,39.9,11.3,61.7,11.1l285.1-2.8c92.9-0.9,167.4-77,166.5-169.8
					l-1-105.6c-0.3-33-10.2-63.8-26.9-89.6c4.9,2.1,9.7,4.4,14.3,7c-3.5-3.5-7.1-6.8-10.9-10c-3.9-3.2-7.9-6.3-12.1-9.2
					c0-0.1-0.1-0.1-0.1-0.2c4.3,2.9,8.4,6.1,12.3,9.4c36.5,30.4,59.9,76.1,60.4,127.5L1492.9,1586.7z"/>
			</g>
			<g id="light_00000085230034087214155580000009421529642589130164_" class="st2">
				<path class="st3" d="M1442.4,1363.6c-24.4-13.4-52.6-20.9-82.4-20.6l-285.1,2.8c-92.9,0.9-167.5,76.9-166.6,169.8l1,105.6
					c0.4,45.9,19.3,87.3,49.4,117.4c-51.5-28.3-86.7-82.8-87.3-145.8l-1-105.6c-0.9-92.9,73.7-168.9,166.6-169.8l285.1-2.8
					c41.5-0.4,79.8,14.3,109.3,39.1C1435.3,1356.8,1438.9,1360.1,1442.4,1363.6z"/>
			</g>
		</g>
		<g id="square_00000102511188621411605860000008769901584167577232_">
			<g id="square_00000135662399060121911440000010045123102303548089_">
				<path class="st1 x0" d="M785.9,1481.1l1,105.6c0.9,92.9-73.6,168.9-166.5,169.8l-285.1,2.8c-21.7,0.2-42.5-3.7-61.7-11.1
					c-62.6-23.9-107.5-84.4-108.2-155.5l-1-105.6c-0.9-92.9,73.7-168.9,166.6-169.8l285.1-2.8c41.5-0.4,79.8,14.3,109.3,39.1
					C762,1384,785.4,1429.7,785.9,1481.1z"/>
			</g>
			<g id="shadow_00000039843240618975288190000013446463984697593004_" class="st2">
				<path d="M787,1586.7c0.9,92.9-73.7,168.9-166.5,169.8l-285.1,2.8c-21.7,0.2-42.5-3.7-61.6-11.1c-7.3-2.8-14.4-6.1-21.2-9.8
					c-8.4-8.4-15.9-17.7-22.4-27.7c2.1,0.9,4.3,1.8,6.5,2.6c19.2,7.4,39.9,11.3,61.7,11.1l285.1-2.8c92.9-0.9,167.4-77,166.5-169.8
					l-1-105.6c-0.3-33-10.2-63.8-26.9-89.6c4.9,2.1,9.7,4.4,14.3,7c-3.5-3.5-7.1-6.8-10.9-10c-3.9-3.2-7.9-6.3-12.1-9.2
					c0-0.1-0.1-0.1-0.1-0.2c4.3,2.9,8.4,6.1,12.3,9.4c36.5,30.4,59.9,76.1,60.4,127.5L787,1586.7z"/>
			</g>
			<g id="light_00000085930963869314266230000005971762916626518444_" class="st2">
				<path class="st3" d="M736.5,1363.6c-24.4-13.4-52.6-20.9-82.4-20.6l-285.1,2.8c-92.9,0.9-167.5,76.9-166.6,169.8l1,105.6
					c0.4,45.9,19.3,87.3,49.4,117.4c-51.5-28.3-86.7-82.8-87.3-145.8l-1-105.6c-0.9-92.9,73.7-168.9,166.6-169.8l285.1-2.8
					c41.5-0.4,79.8,14.3,109.3,39.1C729.3,1356.8,733,1360.1,736.5,1363.6z"/>
			</g>
		</g>
		<g id="square_00000042699798348766502480000013313927911319106748_">
			<g id="square_00000140718365647915650860000016283469383806036670_">
				<path class="st1 x0" d="M1491.9,907.2l1,105.6c0.9,92.9-73.6,168.9-166.5,169.8l-285.1,2.8c-21.7,0.2-42.5-3.7-61.7-11.1
					c-62.6-23.9-107.5-84.4-108.2-155.5l-1-105.6c-0.9-92.9,73.7-168.9,166.6-169.8l285.1-2.8c41.5-0.4,79.8,14.3,109.3,39.1
					C1468,810.2,1491.4,855.9,1491.9,907.2z"/>
			</g>
			<g id="shadow_00000044899858263196037570000006734235721238000553_" class="st2">
				<path d="M1492.9,1012.9c0.9,92.9-73.7,168.9-166.5,169.8l-285.1,2.8c-21.7,0.2-42.5-3.7-61.6-11.1c-7.3-2.8-14.4-6.1-21.2-9.8
					c-8.4-8.4-15.9-17.7-22.4-27.7c2.1,0.9,4.3,1.8,6.5,2.6c19.2,7.4,39.9,11.3,61.7,11.1l285.1-2.8c92.9-0.9,167.4-77,166.5-169.8
					l-1-105.6c-0.3-33-10.2-63.8-26.9-89.6c4.9,2.1,9.7,4.4,14.3,7c-3.5-3.5-7.1-6.8-10.9-10c-3.9-3.2-7.9-6.3-12.1-9.2
					c0-0.1-0.1-0.1-0.1-0.2c4.3,2.9,8.4,6.1,12.3,9.4c36.5,30.4,59.9,76.1,60.4,127.5L1492.9,1012.9z"/>
			</g>
			<g id="light_00000035492856905302602240000011833120863260201108_" class="st2">
				<path class="st3" d="M1442.4,789.8c-24.4-13.4-52.6-20.9-82.4-20.6l-285.1,2.8c-92.9,0.9-167.5,76.9-166.6,169.8l1,105.6
					c0.4,45.9,19.3,87.3,49.4,117.4c-51.5-28.3-86.7-82.8-87.3-145.8l-1-105.6c-0.9-92.9,73.7-168.9,166.6-169.8l285.1-2.8
					c41.5-0.4,79.8,14.3,109.3,39.1C1435.3,783,1438.9,786.3,1442.4,789.8z"/>
			</g>
		</g>
		<g id="square_00000117668502244008272590000012632099100836077478_">
			<g id="square_00000103223909643153575970000005360864119920494735_">
				<path class="st1 x0" d="M785.9,907.2l1,105.6c0.9,92.9-73.6,168.9-166.5,169.8l-285.1,2.8c-21.7,0.2-42.5-3.7-61.7-11.1
					c-62.6-23.9-107.5-84.4-108.2-155.5l-1-105.6c-0.9-92.9,73.7-168.9,166.6-169.8l285.1-2.8c41.5-0.4,79.8,14.3,109.3,39.1
					C762,810.2,785.4,855.9,785.9,907.2z"/>
			</g>
			<g id="shadow_00000158737025191601938050000011976394023837012875_" class="st2">
				<path d="M787,1012.9c0.9,92.9-73.7,168.9-166.5,169.8l-285.1,2.8c-21.7,0.2-42.5-3.7-61.6-11.1c-7.3-2.8-14.4-6.1-21.2-9.8
					c-8.4-8.4-15.9-17.7-22.4-27.7c2.1,0.9,4.3,1.8,6.5,2.6c19.2,7.4,39.9,11.3,61.7,11.1l285.1-2.8c92.9-0.9,167.4-77,166.5-169.8
					l-1-105.6c-0.3-33-10.2-63.8-26.9-89.6c4.9,2.1,9.7,4.4,14.3,7c-3.5-3.5-7.1-6.8-10.9-10c-3.9-3.2-7.9-6.3-12.1-9.2
					c0-0.1-0.1-0.1-0.1-0.2c4.3,2.9,8.4,6.1,12.3,9.4c36.5,30.4,59.9,76.1,60.4,127.5L787,1012.9z"/>
			</g>
			<g id="light_00000117674190597693402320000017407160781361755037_" class="st2">
				<path class="st3" d="M736.5,789.8c-24.4-13.4-52.6-20.9-82.4-20.6L369,772c-92.9,0.9-167.5,76.9-166.6,169.8l1,105.6
					c0.4,45.9,19.3,87.3,49.4,117.4c-51.5-28.3-86.7-82.8-87.3-145.8l-1-105.6c-0.9-92.9,73.7-168.9,166.6-169.8l285.1-2.8
					c41.5-0.4,79.8,14.3,109.3,39.1C729.3,783,733,786.3,736.5,789.8z"/>
			</g>
		</g>
		<g id="square_00000125593031930844027540000012100046173937855401_">
			<g id="square_00000003100966242747481960000013153273221478284694_">
				<path class="st1 x0" d="M1491.9,333.4l1,105.6c0.9,92.9-73.6,168.9-166.5,169.8l-285.1,2.8c-21.7,0.2-42.5-3.7-61.7-11.1
					C917,576.6,872.1,516.1,871.4,445l-1-105.6c-0.9-92.9,73.7-168.9,166.6-169.8l285.1-2.8c41.5-0.4,79.8,14.3,109.3,39.1
					C1468,236.4,1491.4,282.1,1491.9,333.4z"/>
			</g>
			<g id="shadow_00000102542401440159501920000004133733634157902725_" class="st2">
				<path d="M1492.9,439.1c0.9,92.9-73.7,168.9-166.5,169.8l-285.1,2.8c-21.7,0.2-42.5-3.7-61.6-11.1c-7.3-2.8-14.4-6.1-21.2-9.8
					c-8.4-8.4-15.9-17.7-22.4-27.7c2.1,0.9,4.3,1.8,6.5,2.6c19.2,7.4,39.9,11.3,61.7,11.1l285-2.8c92.9-0.9,167.4-77,166.5-169.8
					l-1-105.6c-0.3-33-10.2-63.7-26.9-89.6c4.9,2.1,9.7,4.4,14.3,7c-3.5-3.5-7.1-6.8-10.9-10c-3.9-3.2-7.9-6.3-12.1-9.2
					c0-0.1-0.1-0.1-0.1-0.2c4.3,2.9,8.4,6.1,12.3,9.4c36.5,30.4,59.9,76.1,60.4,127.5L1492.9,439.1z"/>
			</g>
			<g id="light_00000011714814548848910190000002339505345669519290_" class="st2">
				<path class="st3" d="M1442.4,216c-24.4-13.4-52.6-20.9-82.4-20.6l-285.1,2.8C982,199.1,907.4,275.1,908.3,368l1,105.6
					c0.4,45.9,19.3,87.3,49.4,117.4c-51.5-28.3-86.7-82.8-87.3-145.8l-1-105.6c-0.9-92.9,73.7-168.9,166.6-169.8l285.1-2.8
					c41.5-0.4,79.8,14.3,109.3,39.1C1435.3,209.1,1438.9,212.5,1442.4,216z"/>
			</g>
		</g>
		<g id="square_00000124878386485439672320000003145233928567531953_">
			<g id="square_00000157282948754860462980000018435103729490479770_">
				<path class="st1 x0" d="M785.9,333.4l1,105.6c0.9,92.9-73.6,168.9-166.5,169.8l-285.1,2.8c-21.7,0.2-42.5-3.7-61.7-11.1
					C211,576.6,166.1,516.1,165.4,445l-1-105.6c-0.9-92.9,73.7-168.9,166.6-169.8l285.1-2.8c41.5-0.4,79.8,14.3,109.3,39.1
					C762,236.4,785.4,282.1,785.9,333.4z"/>
			</g>
			<g id="shadow_00000068651494062635237240000016728540665186918064_" class="st2">
				<path d="M787,439.1c0.9,92.9-73.7,168.9-166.5,169.8l-285.2,2.8c-21.7,0.2-42.5-3.7-61.6-11.1c-7.3-2.8-14.4-6.1-21.2-9.8
					c-8.4-8.4-15.9-17.7-22.4-27.7c2.1,0.9,4.3,1.8,6.5,2.6c19.2,7.4,39.9,11.3,61.7,11.1l285.1-2.8c92.9-0.9,167.4-77,166.5-169.8
					l-1-105.6c-0.3-33-10.2-63.7-26.9-89.6c4.9,2.1,9.7,4.4,14.3,7c-3.5-3.5-7.1-6.8-10.9-10c-3.9-3.2-7.9-6.3-12.1-9.2
					c0-0.1-0.1-0.1-0.1-0.2c4.3,2.9,8.4,6.1,12.3,9.4c36.5,30.4,59.9,76.1,60.4,127.5L787,439.1z"/>
			</g>
			<g id="light_00000031920292250563287150000002599359569614350749_" class="st2">
				<path class="st3" d="M736.5,216c-24.4-13.4-52.6-20.9-82.4-20.6L369,198.2C276.1,199,201.5,275,202.4,367.9l1,105.6
					c0.4,45.9,19.3,87.3,49.4,117.4c-51.5-28.3-86.7-82.8-87.3-145.8l-1-105.6c-0.9-92.9,73.7-168.9,166.6-169.8l285.1-2.8
					c41.5-0.4,79.8,14.3,109.3,39.1C729.3,209.1,733,212.5,736.5,216z"/>
			</g>
		</g>
	</g>
</g>
</svg>
