<svg xmlns="http://www.w3.org/2000/svg" xmlns:xlink="http://www.w3.org/1999/xlink" width="1080" height="1080" viewBox="0 0 1080 1080">
  <defs>
    <clipPath id="clip-Web_1920_15">
      <rect width="1080" height="1080"/>
    </clipPath>
  </defs>
  <g id="Web_1920_15" data-name="Web 1920 – 15" clip-path="url(#clip-Web_1920_15)">
    <g id="logo-simplified" transform="translate(-339.677 -280.233)">
      <path id="Path_26" data-name="Path 26" d="M533.95,261.358v-.007c1.014-4.568,1.941-9.121,2.795-13.7,1.189-6.414,8.625-9.72,13.915-5.889a13.83,13.83,0,0,1,1.875,1.62c5.663,6.137,8.18,20.556,5.611,32.143l-47.89,216c-3.408,15.353-8.632,23.153-18.126,26.955-7.239,2.992-14.419,4.531-24.8,5.3a13.317,13.317,0,0,0-5.188,2.773c-6.407,5.611-7.093,26.444-1.423,26.444l189.554.679a8.882,8.882,0,0,0,8.662-6.954,64.508,64.508,0,0,0,2.35-10.894c.73-5.721.146-7.436-.628-8.618a8.794,8.794,0,0,0-5.137-3.43c-10.7-.876-28.765-3.853-35.617-7.881-8.238-4.524-7.713-15.623-5.823-24.131l45.183-203.8a8.492,8.492,0,0,1,1.635-3.524,98.506,98.506,0,0,1,11.391-11.916c6.458-5.735,16.5.431,14.572,8.844-4.728,21.373,1.117,34.369,6.859,41.535,7.749,9.654,19.906,14.762,35.142,14.762,30.757,0,59.463-28.794,68.263-68.468,5.327-24.058,2.16-44.913-8.91-58.719-8.7-10.836-21.446-16.564-36.85-16.564-25.518,0-50.875,12.675-78.56,39.564l3.276-11.858a8.963,8.963,0,0,0-1.007-7.1l-2.306-3.714a8.955,8.955,0,0,0-7.545-4.24l-113.753-.839a8.984,8.984,0,0,1-8.844-9.413c2.109-56.749-12.558-102.742-43.709-136.921C450.049,5.788,378.75,0,350.358,0H143.167a8.955,8.955,0,0,0-8.749,7.02c-5.29,11.887-6.327,21.417-2.605,23.993.839.569,30.917,4.437,41.877,11.588,8.041,5.225,9.895,13.777,6.4,29.509L97.736,443.542c-2.634,11.879-6.648,19.95-12.814,25.328a35.958,35.958,0,0,1-8.589,5.276c-16.477,7.757-24.766.19-35.9,6.64-9.07,5.247-15.681,17.265-12.894,26.028a14.61,14.61,0,0,0,4.013,6.181H228.2c124.414,0,267.2-77.815,305.752-251.637m-128.777-3.889C383.165,356.722,338.055,475.043,248.1,475.043c-13.879,0-23.467-3.189-28.517-9.464-4.867-6.071-5.9-15.616-3.072-28.356L303.321,45.7a8.947,8.947,0,0,1,8.289-7.012c8.793-.431,18.315-.744,25.605-.744,22.3,0,40.352,8.384,53.633,24.941,28.619,35.668,33.844,106.587,14.324,194.582" transform="translate(509.874 288.147)" fill="#fcf3e4"/>
      <path id="Path_27" data-name="Path 27" d="M526.051,123.038c13.361-9.931,37.353-14.127,50.247-16.382l.715-.124a16.31,16.31,0,0,0-2.853-32.369H414.83a16.394,16.394,0,0,0-16.01,12.865l-.175.81a16.439,16.439,0,0,0,11.85,19.388c17.812,4.867,35.843,13.069,39.506,18.024,9.34,12.449,8.465,44.074-2.605,94.007L409.759,388.97a1.555,1.555,0,0,1-1.518,1.343,1.594,1.594,0,0,1-1.737-1.036L275.516,84.029a16.314,16.314,0,0,0-15-9.865H121.053a16.388,16.388,0,0,0-16,12.843l-.715,3.211a16.261,16.261,0,0,0,10.187,18.775c18.162,6.626,32.078,16.615,39.192,28.123,8.486,13.718,10.165,30.312,5.3,52.225L102.876,442.545c-12.1,54.611-24.5,85.017-39.024,95.707-13.266,9.88-36.609,14.091-49.977,16.455a16.386,16.386,0,0,0-10.858,6.6,16.458,16.458,0,0,0,.562,19.753,16.265,16.265,0,0,0,12.733,6.1h158.1a16.4,16.4,0,0,0,16.024-12.908l.175-.788a16.383,16.383,0,0,0-11.529-19.315c-15.3-4.24-34.7-12.427-39.214-18.067-9.282-12.361-8.26-42.235,3.225-94.007L191.724,222.73a1.713,1.713,0,0,1,3.247-.306L348.209,579.466a16.266,16.266,0,0,0,15,9.88h28.531a16.392,16.392,0,0,0,15.915-12.777l79.5-358.524c11.551-52.115,24.642-84.083,38.9-95.007" transform="translate(340.522 755.146)" fill="#fcf3e4"/>
      <path id="Path_28" data-name="Path 28" d="M396.206,97.136a.1.1,0,0,0-.073-.044l-133.367.255a15.566,15.566,0,0,0-14.127,12.1l-.255,1.131a15.255,15.255,0,0,0,2.306,12,15.765,15.765,0,0,0,10.515,6.648c10.34,1.642,17.812,4.991,19.906,7.516,5.239,6.173,6.735,17.192,4.013,29.458L242.151,359.777l-.015.029c-16.5,24.481-34.055,36.376-53.669,36.376-4.816,0-8.246-1.474-10.785-4.641-3.933-4.9-9.3-18.673-1.087-55.756l52.2-227.645-.007-.058-5.714-11.42a.088.088,0,0,0-.073-.051l-133.185.737a15.605,15.605,0,0,0-14.149,12.186l-.124.584a15.674,15.674,0,0,0,11.843,18.571c6.764,1.532,13.084,4.539,16.447,7.771,6.3,6.29,8.486,17.965,5.706,30.472L73.948,327.466c-10.938,49.364-7.764,85.265,9.442,106.7,11.245,14.017,28.006,21.117,49.817,21.117,45.2,0,74.721-21.388,97.918-43.5a.084.084,0,0,1,.139.08l-5.706,25.722.007.058,6.815,11.026a.08.08,0,0,0,.073.044l87.469-.066h.015l7.253-1.459.985-4.546q1.828-8.472,3.634-16.995c3.809-17.994,7.45-35.872,10.88-53.392L403.05,108.25l-.015-.066Z" transform="translate(766.107 896.501)" fill="#fcf3e4"/>
      <path id="Path_29" data-name="Path 29" d="M533.411,149.844a22.485,22.485,0,0,0-10.69-2.393H484.507a8.4,8.4,0,0,1-8.224-10.092l8.464-35.463a23.2,23.2,0,0,0-11.807-25.481,22.266,22.266,0,0,0-10.821-2.488H407.363a22.837,22.837,0,0,0-22.431,17.936l-11.471,49.014a8.434,8.434,0,0,1-8.187,6.575H108.689c-8.756,0-17.308,4.371-21.329,12.142a23.014,23.014,0,0,0,20.3,33.829l252.681.533a.088.088,0,0,1,.088.1L278.87,568.925a15.259,15.259,0,0,0,3.853,13.8,15.041,15.041,0,0,0,13.521,4.539c14.025-2.313,25.211-2.9,31.494-1.635a209.121,209.121,0,0,0,33.61,3.707c.182.007.379.007.569.007A15.205,15.205,0,0,0,376.9,576.514c.46-2.926,1.036-5.874,1.664-8.764l85.112-371.432a.094.094,0,0,1,.117-.066l45.606,17.98a22.855,22.855,0,0,0,31.457-16.557L545.5,175.07a23.184,23.184,0,0,0-12.084-25.226" transform="translate(873.702 753.654)" fill="#fcf3e4"/>
    </g>
  </g>
</svg>
