<svg xmlns="http://www.w3.org/2000/svg" width="30" height="24.376" viewBox="0 0 30 24.376">
  <g id="icon-twitter" transform="translate(0 -3.749)">
    <g id="Group_296" data-name="Group 296">
      <path id="Path_157" data-name="Path 157" d="M9.424,28.125c11.321,0,17.514-9.381,17.514-17.5,0-.262,0-.529-.011-.791A12.534,12.534,0,0,0,30,6.641a12.484,12.484,0,0,1-3.542.971,6.189,6.189,0,0,0,2.713-3.407,12.249,12.249,0,0,1-3.913,1.487,6.161,6.161,0,0,0-10.493,5.614A17.484,17.484,0,0,1,2.077,4.877a6.167,6.167,0,0,0,1.909,8.216A6.231,6.231,0,0,1,1.2,12.328v.084a6.165,6.165,0,0,0,4.935,6.034,6.006,6.006,0,0,1-1.622.216,6.056,6.056,0,0,1-1.151-.107,6.156,6.156,0,0,0,5.751,4.269,12.353,12.353,0,0,1-7.65,2.638A11.849,11.849,0,0,1,0,25.378a17.52,17.52,0,0,0,9.424,2.747Z" fill="#fcf3e4"/>
    </g>
  </g>
</svg>
