<svg id="icon-facebook" xmlns="http://www.w3.org/2000/svg" width="30" height="30" viewBox="0 0 30 30">
  <path id="Path_156" data-name="Path 156" d="M5.478,0A5.466,5.466,0,0,0,0,5.478V24.522A5.466,5.466,0,0,0,5.478,30H15.8V18.272H12.7V14.049h3.1V10.442c0-2.834,1.832-5.437,6.053-5.437a25.6,25.6,0,0,1,2.973.164l-.1,3.943s-1.289-.012-2.7-.012c-1.522,0-1.766.7-1.766,1.866v3.083h4.582l-.2,4.222H20.265V30h4.257A5.466,5.466,0,0,0,30,24.522V5.478A5.466,5.466,0,0,0,24.522,0H5.478Z" fill="#fcf3e4"/>
</svg>
