<svg id="icon-instagram" xmlns="http://www.w3.org/2000/svg" width="30" height="30" viewBox="0 0 30 30">
  <g id="Group_295" data-name="Group 295">
    <path id="Path_155" data-name="Path 155" d="M15,0c-4.071,0-4.582.019-6.182.09a11.053,11.053,0,0,0-3.643.7A7.344,7.344,0,0,0,2.518,2.518,7.363,7.363,0,0,0,.787,5.175a10.987,10.987,0,0,0-.7,3.637C.019,10.416,0,10.926,0,15s.019,4.583.09,6.182a11.05,11.05,0,0,0,.7,3.641,7.679,7.679,0,0,0,4.386,4.388,11.012,11.012,0,0,0,3.641.7c1.6.071,2.111.09,6.186.09s4.583-.019,6.184-.09a11.073,11.073,0,0,0,3.643-.7,7.679,7.679,0,0,0,4.386-4.387,11.1,11.1,0,0,0,.7-3.641c.071-1.6.09-2.109.09-6.184s-.019-4.584-.09-6.186a11.087,11.087,0,0,0-.7-3.639,7.361,7.361,0,0,0-1.731-2.657A7.333,7.333,0,0,0,24.825.787a11.035,11.035,0,0,0-3.643-.7C19.581.019,19.072,0,15,0H15ZM13.656,2.7H15c4,0,4.479.013,6.06.086a8.312,8.312,0,0,1,2.786.516,4.654,4.654,0,0,1,1.725,1.123,4.634,4.634,0,0,1,1.121,1.725,8.239,8.239,0,0,1,.516,2.784c.073,1.581.088,2.055.088,6.058s-.015,4.479-.088,6.06a8.3,8.3,0,0,1-.516,2.784,4.972,4.972,0,0,1-2.848,2.844,8.252,8.252,0,0,1-2.784.517c-1.581.071-2.055.088-6.06.088s-4.481-.017-6.062-.088a8.285,8.285,0,0,1-2.784-.517,4.646,4.646,0,0,1-1.725-1.121,4.65,4.65,0,0,1-1.125-1.725,8.287,8.287,0,0,1-.516-2.784C2.719,19.474,2.7,19,2.7,14.993s.015-4.477.086-6.058a8.3,8.3,0,0,1,.518-2.786A4.654,4.654,0,0,1,4.431,4.423,4.634,4.634,0,0,1,6.156,3.3,8.285,8.285,0,0,1,8.94,2.784c1.384-.064,1.92-.082,4.716-.084v0Zm9.353,2.49a1.8,1.8,0,1,0,1.8,1.8,1.8,1.8,0,0,0-1.8-1.8ZM15,7.3a7.7,7.7,0,1,0,7.7,7.7A7.7,7.7,0,0,0,15,7.3ZM15,10a5,5,0,1,1-5,5A5,5,0,0,1,15,10Z" fill="#fcf3e4"/>
  </g>
</svg>
