<svg xmlns="http://www.w3.org/2000/svg" width="665.884" height="996.043" viewBox="0 0 665.884 996.043">
  <g id="logo-full" transform="translate(-277.875 -147.103)">
    <path id="Path_30" data-name="Path 30" d="M559.8,120.762a14.222,14.222,0,0,0-6.709-1.486h-23.5a5.236,5.236,0,0,1-4.052-1.936,5.131,5.131,0,0,1-1.036-4.278l5.223-21.883a14.293,14.293,0,0,0-7.249-15.714,13.948,13.948,0,0,0-6.754-1.576h-33.77a14.123,14.123,0,0,0-13.823,11.077l-7.069,30.258a5.238,5.238,0,0,1-5.043,4.052H297.92c-6.169,0-12.112,3.512-14.229,9.321a14.226,14.226,0,0,0,13.328,19.046l155.7.315a.245.245,0,0,1,.225.315L408.372,353.058v.045c-4.683,15.895-10.987,31.519-21.883,45.568a112.878,112.878,0,0,1-38.183,31.384c-21.973,10.9-54.663,10.536-113.964,9.861-8.555-.09-17.7-.225-27.422-.27-.81-.045-1.891-.045-3.107-.09-4.5-.135-11.3-.315-19.9.135-26.971,1.486-55.609,7.88-74.655,16.66-36.247,16.8-77,62-80.869,121.754-4.233,65.38,37.6,129.5,97.3,149.13a197.31,197.31,0,0,0,61.372,10c46.108,0,88.749-17.02,115.675-48.359,24.45-28.412,42.686-74.07,28.367-112.118-8.195-21.7-25.936-38.363-35.076-41.605-3.107-1.126-5.763-.991-7.97.27-5.268,3.107-3.692,9.05-2.071,15.354,1.8,6.8,4.233,16.165,2.612,27.6-1.711,12.067-8.96,29.043-23.684,37.057-20.307,11.077-48.449.5-64.614-15.039-24.855-23.909-28.952-62.678-17.02-82.535,12.112-20.262,41.38-20.217,78.482-20.127,90.685.18,115.9-17.786,139.584-32.194,24.63-14.949,37.328-32.33,39.984-36.022A154.343,154.343,0,0,0,458.937,395.7a156.131,156.131,0,0,0,5.268-17.065l52.457-229.008a.207.207,0,0,1,.315-.135l27.917,10.987a14.831,14.831,0,0,0,6.529,1.126,14.3,14.3,0,0,0,12.923-11.347l2.837-13.958a14.3,14.3,0,0,0-7.384-15.534" transform="translate(376.275 405.916)" fill="#fcf3e4"/>
    <path id="Path_31" data-name="Path 31" d="M167.023,103.6,163.6,96.714a.248.248,0,0,0-.225-.135l-82.085.45a9.654,9.654,0,0,0-8.731,7.52l-.05.18a9.868,9.868,0,0,0,7.475,11.662c4.1.991,7.925,2.792,9.951,4.773,3.917,3.872,5.268,11.077,3.512,18.776L71.521,239c-6.754,30.483-4.818,52.637,5.809,65.875,2.7,3.332,9.591,8.87,30.754,13.013,9.685,1.891,89.739,16.525,120.043-29a64.288,64.288,0,0,0,9.231-22.243l37.192-162.818a.137.137,0,0,0,0-.18l-4.142-6.664c-.045-.09-.09-.135-.18-.135l-82.22.18a9.575,9.575,0,0,0-8.69,7.475l-.18.675c-.045.36-.135.675-.18.991a9.64,9.64,0,0,0,1.621,6.439,9.96,9.96,0,0,0,6.484,4.1c6.394.991,10.987,3.062,12.292,4.638,3.242,3.782,4.142,10.581,2.477,18.146L175.308,258.9a.157.157,0,0,1-.045.09c-.45,2.521-2.7,12.878-12.157,19.092-6.934,4.593-18.6,7.474-25.756,2.116a9.8,9.8,0,0,1-1.846-1.621c-2.431-3.062-5.718-11.527-.675-34.4q16.142-70.31,32.194-140.575" transform="translate(514.602 485.392)" fill="#fcf3e4"/>
    <path id="Path_32" data-name="Path 32" d="M224.092,392.025H241.7a10.16,10.16,0,0,0,9.861-7.88l49.035-221.223c7.114-32.149,15.219-51.916,24-58.621,8.24-6.128,23.054-8.735,31.024-10.131l.45-.05a10.05,10.05,0,0,0,8.06-7.745,10.3,10.3,0,0,0-1.981-8.506,10.027,10.027,0,0,0-7.88-3.742H256.106a10.3,10.3,0,0,0-10.041,8.1l-.045.14a10.349,10.349,0,0,0,7.475,12.2c10.9,3.017,21.928,8.06,24.18,11.072,5.763,7.7,5.223,27.2-1.621,58L252.864,268.38a1.059,1.059,0,0,1-2.026.18L170.014,80.211a10.1,10.1,0,0,0-9.276-6.083H74.826a10.308,10.308,0,0,0-10.041,8.064l-.405,1.846a10,10,0,0,0,6.259,11.568c11.212,4.1,19.812,10.266,24.225,17.381,5.223,8.47,6.259,18.686,3.242,32.194L63.479,301.425C56,335.155,48.35,353.882,39.39,360.506c-8.15,6.074-22.514,8.69-30.754,10.131a10.081,10.081,0,0,0-6.439,16.3,10.033,10.033,0,0,0,7.88,3.733h97.394a10.353,10.353,0,0,0,10.086-8.1v-.18a10.254,10.254,0,0,0-7.249-12.117c-9.411-2.652-21.253-7.65-24-11.122-5.718-7.605-5.088-26.066,1.981-57.991L118.278,165.8a1.077,1.077,0,0,1,2.026-.176l94.557,220.318a10.039,10.039,0,0,0,9.231,6.079" transform="translate(277.875 406.753)" fill="#fcf3e4"/>
    <path id="Path_33" data-name="Path 33" d="M149.759,316.55c76.767,0,164.881-48.013,188.669-155.272v0c.626-2.819,1.2-5.628,1.72-8.452a5.533,5.533,0,0,1,8.587-3.634,7.784,7.784,0,0,1,1.162,1c3.494,3.778,5.048,12.675,3.458,19.83L323.807,303.3c-2.1,9.474-5.331,14.287-11.189,16.633a46.485,46.485,0,0,1-15.3,3.269,8.322,8.322,0,0,0-3.2,1.716c-3.953,3.467-4.381,16.318-.878,16.318l116.967.414a5.468,5.468,0,0,0,5.34-4.287A39.451,39.451,0,0,0,417,330.644c.446-3.53.09-4.584-.387-5.318a5.428,5.428,0,0,0-3.17-2.121c-6.605-.536-17.75-2.377-21.978-4.858-5.088-2.8-4.759-9.64-3.6-14.891L415.757,177.7a5.292,5.292,0,0,1,1.009-2.175,60.1,60.1,0,0,1,7.029-7.353c3.985-3.535,10.181.261,8.992,5.457-2.918,13.184.684,21.212,4.228,25.625,4.786,5.962,12.288,9.114,21.69,9.114,18.979,0,36.688-17.768,42.118-42.249,3.292-14.845,1.337-27.719-5.493-36.233-5.372-6.691-13.233-10.226-22.739-10.226-15.746,0-31.393,7.83-48.481,24.418l2.026-7.312a5.538,5.538,0,0,0-.626-4.386l-1.418-2.292a5.515,5.515,0,0,0-4.656-2.616l-70.193-.522a5.541,5.541,0,0,1-5.457-5.809c1.3-35.018-7.749-63.4-26.971-84.485C286.655,3.571,242.654,0,225.139,0H97.284A5.529,5.529,0,0,0,91.89,4.332c-3.269,7.335-3.9,13.215-1.607,14.8.518.356,19.078,2.738,25.841,7.15,4.957,3.228,6.1,8.506,3.949,18.214L69.255,273.7c-1.625,7.335-4.1,12.306-7.907,15.624a22.355,22.355,0,0,1-5.3,3.26c-10.2,4.8-16.944-.531-22.153,4.093-1,.883-2.049,3.017-4.165,7.281-2.278,4.6-2.634,6.6-2.49,8.461a11.053,11.053,0,0,0,1.171,4.133Zm-7.213-46.756L196.114,28.205a5.517,5.517,0,0,1,5.115-4.327c5.426-.261,11.3-.464,15.8-.464,13.765,0,24.9,5.183,33.1,15.395,17.655,22,20.879,65.771,8.834,120.065-13.576,61.251-41.416,134.262-96.926,134.262-8.56,0-14.481-1.968-17.592-5.845-3-3.742-3.643-9.631-1.9-17.5" transform="translate(373.19 147.103)" fill="#fcf3e4"/>
  </g>
</svg>
