<?xml version="1.0" encoding="utf-8"?>
<!-- Generator: Adobe Illustrator 27.4.1, SVG Export Plug-In . SVG Version: 6.00 Build 0)  -->
<svg version="1.1" id="original-flavor" xmlns="http://www.w3.org/2000/svg" xmlns:xlink="http://www.w3.org/1999/xlink" x="0px"
	 y="0px" viewBox="0 0 1708.2 2500" style="enable-background:new 0 0 1708.2 2500;" xml:space="preserve">
<style type="text/css">
	.st0{fill:#E2B78D;}
	.st1{fill:#EDC5A4;}
</style>
<script>const originalFlavor = document.querySelector(&quot;#original-flavor&quot;);

	function logIdOriginalFlavor() {
		console.log(&quot;User clicked on &quot; + this.id);
	}

	originalFlavor.addEventListener(&quot;click&quot;, logIdOriginalFlavor);
	</script>
<g id="nut">
	<g id="right_nut">
		<g id="bottom">
			<path id="bottom_nut" class="st0" d="M1591.4,1124c0.9,14.3,1.9,25.1,2.2,35.8c2.4,134.6,0.6,269.1-22.7,402.1
				c-23.2,132.7-61.5,260.5-132.6,376.5c-4.8,7.9-9.8,15.8-14.9,23.6l-10.6-456.2l-236.8,6.8l-233.2,6.7l-14.4-302.7
				c72.6-3,145-8.4,217.3-16c76.3-7.9,152.3-18.5,228.2-31.6C1446.4,1156.4,1519,1141.5,1591.4,1124z"/>
			<path class="st1" d="M1145.5,1200.6c22.7,102.6,32.8,207.4,30.4,312l-233.2,6.7l-14.4-302.7
				C1000.9,1213.5,1073.3,1208.2,1145.5,1200.6z"/>
		</g>
		<g id="top">
			<path id="top_nut" d="M1460.6,543.7c-79-59.5-168.6-95.6-263-121.3c-73.2-19.9-148.1-29.7-223.1-38.2l-0.1,1.3l-22.1-1.2
				c-4-63.6-23.2-124.2-61.9-181.2C853,147.9,808.7,99.9,752.5,63.7c-27.1-17.5-69.5-14.3-95.3,5.2c-35.2,26.6-41.9,70-31.1,109.7
				c5.2,19.1,17.3,32.7,35.9,39.7c10.9,4.1,22.4,6.8,33.6,10.1c24.3,7,49.7,11.5,72.8,21.2c62.2,26.1,107,69,128.5,131.8l0,0
				l-28.1-1.5c-68.7,3-137.2,7.6-205,18.4c-18.1,2.9-36.2,6.1-54.2,10c-10.4,2.2-20.9,4.6-31.3,7.2
				c-93.8,23.2-184.8,52.8-266.6,105.5c-8.4,5.4-16.7,10.9-24.9,16.6l65.1,390.9L916,955.4l8.7,182.9c67.9-0.3,135.9-2.1,203.7-6.3
				c33.3-2.1,66.7-4.8,100-8.1c45.3-4.6,90.5-9.9,135.5-17.4c39.8-6.6,79.3-14.8,118.4-25.5c47.4-13,94.1-28.2,136.6-54.2
				c37.8-23.2,58.2-53.8,49.9-100c-4.9-27.2-7.2-54.8-12.6-81.9C1631.1,718.5,1562.6,620.4,1460.6,543.7z"/>
			<path d="M795.3,562.6c163.9,163.9,275,360.7,333.1,569.2c-67.9,4.3-135.8,6.1-203.7,6.3L916,955.2l-564.1-26.9l-65.1-390.9
				c8.2-5.6,16.5-11.1,24.9-16.6c81.9-52.7,172.9-82.2,266.6-105.5c10.4-2.6,20.8-5,31.3-7.2C674.9,453,737.1,504.5,795.3,562.6z"/>
		</g>
	</g>
	<g id="left_nut">
		<path id="top_00000011748190030074118630000017647683437381411262_" d="M916.4,954.7l8.7,182.9c-77.4,0.4-154.7-1.3-232.1-3.5
			c-105.2-3.1-210.3-9.9-314.3-27.5c-71.7-12.2-143-26.7-209.8-56.7c-24.3-10.9-47.5-24.9-69.4-39.9c-20-13.7-30.5-33.8-29.6-59.3
			c3.6-107.4,29-207.3,92.9-296.4c34.4-47.8,77.3-84.9,124.5-117.4l65.1,390.9L916.4,954.7z"/>
		<g id="bottom_00000095327322272018378810000003874065754709394859_">
			<path class="st0" d="M1413.3,1505.3l10.6,456.2c-25.1,38.5-53.1,74.6-87,106.4c-30.7,28.7-59,60.2-91.3,86.8
				c-28.7,23.7-61,43.3-92.6,63.2c-33.3,20.9-192,181.2-205.1,200.5c-31.2,45.9-107,34.5-130.4-10.6c-1.4-2.7-5.6-8.4-11.7-16
				c-16.3-20.2-46.7-54.5-77.8-87.2c-35.4-37.2-71.9-72.3-89.5-81.7c-113.4-60.9-210.8-141.3-289.6-243.8
				c-84.2-109.6-133.9-234.3-161.5-368.7c-25.2-123.3-32.1-247.6-20.9-372.9c2.5-27.5,5.1-55,7.6-82.5c0.2-2.2,0.8-4.3,1.6-8.4
				c53.5,8.8,106.4,17.5,159.4,26.2l173.7,36.9c140.7,10,280.7,12.3,420.1,6.4l14.4,302.7l233.2-6.6L1413.3,1505.3z"/>
			<path class="st1" d="M943.2,1518.7l233.2-6.6c-7.3,318.5-130.9,634.8-370.7,879.7c-16.3-20.2-46.7-54.5-77.8-87.2
				c-35.4-37.2-71.9-72.3-89.5-81.7C525,2162,427.6,2081.6,348.8,1979.1c-84.2-109.6-133.9-234.3-161.5-368.7
				c-25.2-123.3-32.1-247.6-20.9-372.9c2.5-27.5,5.1-55,7.6-82.5c0.2-2.2,0.8-4.3,1.6-8.4c53.5,8.8,106.4,17.5,159.4,26.2
				l173.7,36.9c140.7,10,280.7,12.3,420.1,6.4L943.2,1518.7z"/>
		</g>
	</g>
</g>
</svg>
