<?xml version="1.0" encoding="utf-8"?>
<!-- Generator: Adobe Illustrator 27.4.1, SVG Export Plug-In . SVG Version: 6.00 Build 0)  -->
<svg version="1.1" id="pistachio-flavor" xmlns="http://www.w3.org/2000/svg" xmlns:xlink="http://www.w3.org/1999/xlink" x="0px" y="0px"
	 viewBox="0 0 2500 2500" style="enable-background:new 0 0 2500 2500;" xml:space="preserve">
<style type="text/css">
	.st0{fill:#95AD71;}
	.st1{fill:#788E51;}
	.st2{fill:#E2B78D;}
	.st3{opacity:0.25;fill:#FFFFFF;}

	<!-- Custom CSS for animations and other elements goes here-->
	#pistachio-flavor {
		cursor: pointer;
	}

	#pistachio-flavor:hover #pistachio_front {
		animation: frontPistachio .6s ease-in-out alternate infinite;
		transform-origin: center;
		transform-box: fill-box;
	}

	#pistachio-flavor:hover #pistachio_back {
		animation: backPistachio .6s ease-in-out alternate infinite;
		transform-origin: bottom;
		transform-box: fill-box;
	}

	#pistachio-flavor:hover .cover {
		fill: #FFD27C;
	}

	#pistachio-flavor:hover .lightGreen {
		fill: #AA3A3B;
	}

	#pistachio-flavor:hover .darkGreen {
		fill: #761617;
	}

	.cover, .lightGreen, .darkGreen {
		transition: fill .2s ease-in-out;
	}

	@keyframes frontPistachio {
		0% {
			transform: translateX(0px);
		}
		100% {
			transform: translateX(-200px);
		}
	}

	@keyframes backPistachio {
		0% {
			transform: rotate(0deg);
		}
		100% {
			transform: rotate(15deg);
		}
	}
</style>

<!-- Javascript is scripted inside the .svg file -->
<script>
	const pistachioFlavor = document.querySelector("#pistachio-flavor");

	function logIdPistachioFlavor() {
		console.log("User clicked on " + this.id);
	}

	pistachioFlavor.addEventListener("click", logIdPistachioFlavor);
</script>

<g id="pistachio_back">
	<g id="inside">
		<path id="back_00000142147511406268388920000009456865791004620725_" class="st0 lightGreen" d="M693.2,881.6
			c-28.1,136.9-40.8,276-34.9,402.2c0.4,8.6,0.9,17,1.5,25.4c31.6,465.3,319.6,708,658.5,692c60.8-2.9,119.2-13.9,174-32.8
			c44.8-15.3,87.2-36,126.5-61.6c78-140.6,124-467.3,109.3-845.7c-10.6-275.1-51.2-520.6-106.5-685.6
			c-60.1-85.6-63.2-166.2-134.2-212c-62.3-40.3-191.5-51.4-258.2-48.3C974.6,127.5,772.5,495.8,693.2,881.6z"/>
		<path id="shadow" class="st1 darkGreen" d="M1266.5,1079.1c17.4,449.3,114.4,819.5,225.8,889.4c44.8-15.3,87.2-36,126.5-61.6
			c78-140.6,124-467.3,109.3-845.7c-10.6-275.1-51.2-520.6-106.5-685.6c-45.8-136.6-101.8-218.1-159.5-215.9
			c-13.3,0.5-26.1,5.4-38.4,14.4C1317.6,251.2,1249.1,628.5,1266.5,1079.1z"/>
	</g>
	<g id="cover">
		<path id="back" class="st2 cover" d="M398.8,1278.8c7.7,125.5,25.7,407.9,157.6,645.1c56.6,101.8,134.2,195.2,241,264.4
			c88,57,186.9,95.4,292.9,114.1c9.7,56.1,57.8,99.4,116.9,101c58.2,1.6,107.9-37.8,121.6-92c89.1-8.7,174.3-31.3,253.3-67.2
			c21.8-9.9,43.1-20.8,64-32.8c367.9-210.8,427-709.6,447.6-886.4c8.6-74,11.7-146.2,10.1-216.2c-9.2-424.7-186.7-771.3-319.5-975.2
			c-39.1-59.9-130.6-44.7-147.8,24.7c-120.6,483.2-241.1,966.5-361.7,1449.7c-10.1,40.3-67.8,39.2-76.2-1.5
			c-94.8-456.9-189.5-913.7-284.1-1370.6L899.3,163C884.8,93,794,74,752.6,132.3C591.6,358.9,367.3,767.5,398.8,1278.8z"/>
		<path id="light_1" class="st3" d="M2093.6,1325.1c-19.1,164.4-71.6,607.2-374.7,838c-22.8,17.4-47.1,33.6-72.8,48.3
			c-20.8,12-42.2,22.9-64,32.8c-124.7-37.2-245.9-94-359.2-171.3C633.8,1670.8,482.2,867.3,884.3,278.2
			c9.8-14.3,19.8-28.4,30.1-42.2c94.7,456.9,189.4,913.7,284.1,1370.6c8.4,40.7,66.1,41.9,76.2,1.5
			c120.5-483.2,241.1-966.5,361.7-1449.7c8.9-35.5,37.2-56.8,68-61.1c29.3-4.1,60.8,7.3,79.9,36.5
			c132.8,203.9,310.3,550.5,319.5,975.2C2105.3,1178.9,2102.2,1251.1,2093.6,1325.1z"/>
		<path id="light_2" class="st3" d="M2093.6,1325.1c-19.1,164.4-71.6,607.2-374.7,838c167.9-293.3,208.4-635.8,226.4-790.4
			c11.3-97.2,15.4-192,13.3-284c-8.4-390.4-125.1-730.5-254.2-991.4c29.3-4.1,60.8,7.3,79.9,36.5
			c132.8,203.9,310.3,550.5,319.5,975.2C2105.3,1178.9,2102.2,1251.1,2093.6,1325.1z"/>
	</g>
</g>
<g id="pistachio_front">
	<g id="inside_00000042695806121562733650000010327554164861735327_">
		<path id="back_00000166640619981771835970000003738826126611724448_" class="st0 lightGreen" d="M693.2,881.6
			c-28.1,136.9-40.8,276-34.9,402.2c0.4,8.6,0.9,17,1.5,25.4c31.6,465.3,319.6,708,658.5,692c60.8-2.9,119.2-13.9,174-32.8
			c44.8-15.3,87.2-36,126.5-61.6c78-140.6,124-467.3,109.3-845.7c-10.6-275.1-51.2-520.6-106.5-685.6
			c-60.1-85.6-63.2-166.2-134.2-212c-62.3-40.3-191.5-51.4-258.2-48.3C974.6,127.5,772.5,495.8,693.2,881.6z"/>
		<path id="shadow_00000053518074063119363950000001386851577108713135_" class="st1 darkGreen" d="M1266.5,1079.1
			c17.4,449.3,114.4,819.5,225.8,889.4c44.8-15.3,87.2-36,126.5-61.6c78-140.6,124-467.3,109.3-845.7
			c-10.6-275.1-51.2-520.6-106.5-685.6c-45.8-136.6-101.8-218.1-159.5-215.9c-13.3,0.5-26.1,5.4-38.4,14.4
			C1317.6,251.2,1249.1,628.5,1266.5,1079.1z"/>
	</g>
	<g id="cover_00000032617916663425796540000005985505795572559269_">
		<path id="back_00000122684760806687702360000004729530845508166279_" class="st2 cover" d="M398.8,1278.8
			c7.7,125.5,25.7,407.9,157.6,645.1c56.6,101.8,134.2,195.2,241,264.4c88,57,186.9,95.4,292.9,114.1c9.7,56.1,57.8,99.4,116.9,101
			c58.2,1.6,107.9-37.8,121.6-92c89.1-8.7,174.3-31.3,253.3-67.2c21.8-9.9,43.1-20.8,64-32.8c367.9-210.8,427-709.6,447.6-886.4
			c8.6-74,11.7-146.2,10.1-216.2c-9.2-424.7-186.7-771.3-319.5-975.2c-39.1-59.9-130.6-44.7-147.8,24.7
			c-120.6,483.2-241.1,966.5-361.7,1449.7c-10.1,40.3-67.8,39.2-76.2-1.5c-94.8-456.9-189.5-913.7-284.1-1370.6L899.3,163
			C884.8,93.1,794,74,752.6,132.3C591.6,358.9,367.3,767.5,398.8,1278.8z"/>
		<path id="light_1_00000098930199092126286330000014141776424688568744_" class="st3" d="M2093.6,1325.1
			c-19.1,164.4-71.6,607.2-374.7,838c-22.8,17.4-47.1,33.6-72.8,48.3c-20.8,12-42.2,22.9-64,32.8c-124.7-37.2-245.9-94-359.2-171.3
			C633.8,1670.8,482.2,867.3,884.3,278.2c9.8-14.3,19.8-28.4,30.1-42.2c94.7,456.9,189.4,913.7,284.1,1370.6
			c8.4,40.7,66.1,41.9,76.2,1.5c120.5-483.2,241.1-966.5,361.7-1449.7c8.9-35.5,37.2-56.8,68-61.1c29.3-4.1,60.8,7.3,79.9,36.5
			c132.8,203.9,310.3,550.5,319.5,975.2C2105.3,1179,2102.2,1251.2,2093.6,1325.1z"/>
		<path id="light_2_00000063612389639156389990000004312760790532701100_" class="st3" d="M2093.6,1325.1
			c-19.1,164.4-71.6,607.2-374.7,838c167.9-293.3,208.4-635.8,226.4-790.4c11.3-97.2,15.4-192,13.3-284
			c-8.4-390.4-125.1-730.5-254.2-991.4c29.3-4.1,60.8,7.3,79.9,36.5c132.8,203.9,310.3,550.5,319.5,975.2
			C2105.3,1179,2102.2,1251.2,2093.6,1325.1z"/>
	</g>
</g>

</svg>
