<?xml version="1.0" encoding="utf-8"?>
<!-- Generator: Adobe Illustrator 27.4.1, SVG Export Plug-In . SVG Version: 6.00 Build 0)  -->
<svg width="100%" height="100%" version="1.1" id="soft-drink" xmlns="http://www.w3.org/2000/svg" xmlns:xlink="http://www.w3.org/1999/xlink" x="0px" y="0px"
	 viewBox="0 0 2500 2500" style="enable-background:new 0 0 2500 2500;" xml:space="preserve">
<style type="text/css">
	.st0{fill:#C68554;}
	.st1{fill:#EDD5BE;}
	.st2{fill:#A33333;}
	.st3{opacity:0.25;fill:#FFFFFF;}
	.st4{opacity:0.25;fill:#FFFFFF;enable-background:new    ;}

	<!-- Custom CSS for animations and other elements goes here-->
	#soft-drink {
		cursor: pointer;
	}
	
	#soft-drink:hover #bottom {
		animation: press .6s ease-in-out infinite alternate;
		transform-origin: bottom;
		transform-box: fill-box;
	}

	#soft-drink:hover #cap {
		animation: bottleCap .6s ease-in-out infinite alternate;
		transform-origin: bottom;
		transform-box: fill-box;
	}

	#soft-drink:hover .liquid {
		fill: #F4b641;
	}

	#soft-drink:hover .red {
		fill: #761617;
	}

	.liquid {
		transition: fill .2s ease-in-out;
	}

	.red {
		transition: fill .2s ease-in-out;
	}

	@keyframes press {
		0% {
			transform: rotateX(0deg);
		}
		100% {
			transform: rotateX(-40deg);
		}
	}

	@keyframes bottleCap {
		0% {
			transform: translateY(0);
		}
		100% {
			transform: translateY(550px);
		}
	}
</style>

<!-- Javascript is scripted inside the .svg file -->
<script>
	const softDrink = document.querySelector("#soft-drink");

	function logIdSoftDrink() {
		console.log("User clicked on " + this.id);
	}

	softDrink.addEventListener("click", logIdSoftDrink);
</script>

<g id="bottle">
	<g id="bottom">
		<g id="back">
			<path class="st0 liquid" d="M1620,1040.7c0,0.8,0,1.6-0.1,2.5c-0.2,0-0.4,0-0.7,0c-0.1,3.2-0.2,6.4-0.4,9.6c-0.6,15.5-1.3,30.9-1.8,46.4
				c0,0.5-0.1,1.1-0.2,1.6c-0.2,3.5-0.4,7-0.6,10.5c0,0.5-0.1,1-0.1,1.5c-4.8,36.7-8.9,282.3-13.3,440c-1.7,64.3-3.6,114-5.5,129
				c-4.7,37.6-10.1,75.2-13.4,112.9c-5.2,57.9-6.1,115.9-2.6,174c3.4,56.7,15.9,111.8,26.1,167.5c3.6,19.7,5.5,39.7,8.1,59.5
				c0.1,0.3,0.3,0.6,0.3,1c0,0.1-0.1,0.3-0.2,0.4c0.6,5.6,1.3,11.1,1.9,16.6c0,0.9,0.1,1.7,0.1,2.6c0.3,4.3,0.6,8.7,0.9,13
				c0,0.5,0.1,1,0.1,1.5c-0.3,25.3-0.7,50.5-1.1,75.8c0,0.5-0.1,1-0.2,1.5c-13.3,62.3-49.3,104.9-109.1,126.5
				c-10.9,3.9-22.9,5.2-34.3,7.6c-0.6,0-1.2,0-1.7,0c-4.7,0.1-9.5,0.3-14.2,0.4c-4.8,0-9.6,0.1-14.4,0.2c-23.8-0.4-47.5-1-71.3-1
				h-42.1c-33.3,0-66.7,0-100.1,0c-54.8,0-109.5,0-164.2,0c-2.2,0-4.3,0.5-6.4,0.7c-1.2,0-2.4,0-3.6,0c-0.4,0-0.9,0-1.4,0
				c-7.9,0-15.8-0.1-23.7-0.1c-0.9-0.1-1.8-0.3-2.8-0.5c-0.9,0-1.7-0.1-2.6-0.1c-1.5-0.1-3-0.1-4.4-0.2c-20.5-4.1-40-10.6-57.9-21.6
				c-39.3-24.2-64.5-58.7-75.5-103.7c-0.2-0.3-0.4-0.6-0.5-1c0-0.1,0.1-0.3,0.2-0.5l-0.4-0.1c-0.1-5.9-0.3-11.8-0.5-17.7
				c-0.1-16.1-0.3-32.3-0.5-48.4c0-4.8,0-9.6,0.1-14.4v-3.7c0-0.6,0-1.2,0-1.8c0.1-0.4,0-0.7-0.3-1c0.2-4.3,0.4-8.5,0.5-12.8
				c0.3-6,0.5-11.9,0.8-17.9c0.1-0.5,0.2-1.1,0.4-1.6c1-8.7,2-17.4,3-26.2c0.1-0.5,0.2-1.1,0.3-1.6c2.1-13.2,4.2-26.4,6.2-39.5
				c0-0.3-0.2-0.6-0.2-0.9c0-0.1,0.3-0.2,0.4-0.3c4.3-22,8.7-44.1,13-66.1c0.1-0.5,0.2-1,0.3-1.5c3.2-23.2,6.5-46.5,9.8-69.8
				c0-0.5,0.1-0.9,0.1-1.4c1.4-26.8,2.8-53.7,4.2-80.5c0-0.5,0-1.1,0-1.6c-1.3-31.2-2.6-62.4-3.9-93.6c0-0.5-0.1-1.1-0.2-1.6
				c-0.9-12.8-1.9-25.6-2.9-38.3c-0.1-0.3-0.3-0.7-0.4-1c0-0.1,0.2-0.3,0.3-0.5c-0.5-3.9-1-7.7-1.5-11.6c-0.1-0.5-0.2-1.1-0.4-1.6
				c-0.1-1.9-0.3-3.9-0.4-5.8c-0.1-0.3-0.3-0.6-0.4-1c0-0.1,0.1-0.3,0.2-0.5c-2.4-18.4-4.7-36.8-7.1-55.1c-0.1-0.5-0.2-1.1-0.3-1.6
				c-5.1-35.2-10.2-70.5-15.3-105.8c-0.1-0.3-0.3-0.7-0.5-1.1c0-0.1,0.2-0.3,0.3-0.5c-0.5-3.5-0.9-6.9-1.4-10.4
				c-0.1-0.5-0.2-1.1-0.3-1.6c-0.7-7.2-1.4-14.5-2.1-21.8c-0.2-2.7-0.5-5.4-0.8-8.1c0-0.5-0.1-1-0.2-1.5c-0.3-7.6-2-429-2.4-436.6
				c0-5.2,0-10.3,0-15.5c-0.3-12.7-2.5-25.6-3.5-38.3c-0.2-3-0.4-6-0.5-9c-0.1-3.1-0.2-6.2-0.3-9.4v-10.7c0-0.9,0.1-1.7,0.1-2.5
				c0-3.2,0.1-6.3,0.1-9.5c0-0.8,0-1.6,0-2.5c0-0.4,0-0.8,0-1.2c0.3-2.4,0.6-4.7,0.9-7.1c0.1-0.5,0.2-1.1,0.4-1.6
				c1.4-7,2.8-14,4.1-21c0.3-1,0.6-2,0.8-2.9c16.2-58.3,46.4-110.2,75.5-162.5c34.4-61.8,68.1-124,93.3-190.3
				c3.8-9.9,7.6-19.8,11.5-29.6c0.7,0,1.5-0.1,2.3-0.2c0.5-0.1,1.1-0.2,1.6-0.3h0.2c3.3-0.1,6.7-0.5,10.1-0.5H1404
				c7.9,0,15.7,0,23.5,0l-0.1,0.3c0.5,0.2,1,0.3,1.5,0.5c1.2,1.5,2.8,2.9,3.3,4.7c25.6,74.6,62.7,143.9,100.9,212.5
				c24.3,43.6,49.3,86.9,66.9,133.7c0.1,0.5,0.3,1,0.4,1.5c2.3,6.8,4.6,13.5,6.9,20.3c0,0.2-0.2,0.4-0.1,0.5
				c0.1,0.3,0.3,0.6,0.4,0.9c3.1,14,6.3,28,9.4,42c-0.1,0.2-0.3,0.3-0.2,0.5c0.1,0.3,0.2,0.7,0.4,1c0.8,9.6,1.5,19.2,2.2,28.8
				c-0.1,0.1-0.3,0.3-0.3,0.4C1619.6,1040.1,1619.8,1040.4,1620,1040.7z"/>
			<path class="st0 liquid" d="M1608.1,967.1c0.1-0.2,0.2-0.4,0.1-0.5c-0.1-0.3-0.3-0.6-0.4-0.9c-0.1,0.2-0.2,0.4-0.2,0.5
				C1607.8,966.5,1608,966.8,1608.1,967.1z"/>
			<path class="st0 liquid" d="M1601.1,944.8c-0.1-0.3-0.3-0.6-0.5-0.9c0.1,0.5,0.3,1,0.4,1.4C1601,945.2,1601.1,945,1601.1,944.8z"/>
		</g>
		<path id="top" class="st1" d="M1429.2,592.1h-1.4c-7.8,0-15.7,0-23.5,0h-318.8c-3.4,0-6.8,0.3-10.2,0.5c-0.5,0.1-1.1,0.2-1.6,0.3
			c-0.7,0.1-1.5,0.1-2.3,0.2c0-0.2,0.1-0.3,0.1-0.5c2.3-7.8,4.9-15.6,6.9-23.5c10.9-43,22.9-85.7,31.9-129.1
			c6.3-30,9.1-60.8,12.5-91.3c2.1-18.7,2.8-37.5,3.7-56.2c1.1-23.6,1.7-47.3,2.5-70.9c2,0,3.9-0.1,5.8-0.1c0.5,0,0.9,0,1.4,0.1
			c7.4,0.1,14.8,0.3,22.1,0.3h213.2c0.8,4.4,2.1,8.8,2.3,13.3c1,25.8,0.7,51.7,2.7,77.4c4.8,62.1,12.8,123.9,28.2,184.3
			c7.2,28.1,16,55.7,23.9,83.6C1429.8,584.1,1429.1,588.3,1429.2,592.1z"/>
		<polygon id="label" class="st2 red" points="1625.6,1052.9 1614.6,1553 881,1553 874.4,1052.9 		"/>
		<path id="light" class="st3" d="M1473.1,2229.5c0,0.5,0.1,1,0.1,1.5c-0.3,25.3-0.7,50.5-1,75.8c-0.1,0.5-0.2,1-0.2,1.5
			c-13.3,62.3-49.3,104.9-109.1,126.5c-10.4,3.7-21.7,5-32.6,7.3c-0.6,0.1-1.1,0.2-1.7,0.3h-1.7c-4.7,0.1-9.5,0.3-14.2,0.4
			c-4.8,0-9.6,0.1-14.4,0.2c-22.7-0.4-45.4-0.9-68.1-1h-204.7c-1.5-0.1-3-0.1-4.4-0.2c-20.5-4.1-40-10.6-57.9-21.6
			c-39.3-24.2-64.5-58.7-75.5-103.7c-0.2-0.3-0.4-0.6-0.5-1c0-0.1,0.1-0.3,0.2-0.5l-0.4-0.1c-0.1-5.9-0.3-11.8-0.5-17.7
			c-0.1-16.1-0.3-32.3-0.5-48.4c0-4.8,0-9.6,0.1-14.4v-5.5c0.1-0.4,0-0.7-0.3-1c0.2-4.3,0.4-8.5,0.5-12.8c0.3-6,0.5-11.9,0.8-17.9
			c0.1-0.5,0.2-1.1,0.4-1.6c1-8.7,2-17.4,3-26.2c0.1-0.5,0.2-1.1,0.3-1.6c2.1-13.2,4.2-26.4,6.2-39.5c0-0.3-0.2-0.6-0.2-0.9
			c0-0.1,0.3-0.2,0.4-0.3c4.3-22,8.7-44.1,13-66.1c0.1-0.5,0.2-1,0.3-1.5c3.2-23.2,6.5-46.5,9.8-69.8c0-0.5,0.1-0.9,0.1-1.4
			c1.4-26.8,2.8-53.7,4.2-80.5v-1.6l-3.9-93.6c0-0.5-0.1-1.1-0.2-1.6c-0.9-12.8-1.9-25.6-2.9-38.3c-0.1-0.3-0.3-0.7-0.4-1
			c0-0.1,0.2-0.3,0.3-0.5c-0.5-3.9-1-7.7-1.5-11.6c-0.1-0.5-0.2-1.1-0.4-1.6c-0.1-1.9-0.3-3.9-0.4-5.8c-0.1-0.3-0.3-0.6-0.4-1
			c0-0.1,0.1-0.3,0.2-0.5c-2.4-18.4-4.7-36.8-7.1-55.1c-0.1-0.5-0.2-1.1-0.3-1.6c-5.1-35.2-10.2-70.5-15.3-105.8
			c-0.1-0.3-0.3-0.7-0.5-1.1c0-0.1,0.2-0.3,0.3-0.5c-0.5-3.5-0.9-6.9-1.4-10.4c-0.1-0.5-0.2-1.1-0.3-1.6c-0.7-7.2-1.4-14.5-2.1-21.8
			H881l-6.6-500.1h7.1c-0.2-3-0.4-6-0.5-9c-0.1-3.1-0.2-6.2-0.3-9.4v-10.7c0-0.9,0.1-1.7,0.1-2.5c0-3.2,0.1-6.3,0.1-9.5v-3.7
			c0.3-2.4,0.6-4.7,0.9-7.1c0.1-0.5,0.2-1.1,0.4-1.6c1.4-7,2.8-14,4.1-21c0.3-1,0.6-2,0.8-2.9c16.2-58.3,46.4-110.2,75.5-162.5
			c34.4-61.8,68.1-124,93.3-190.3c3.8-9.9,7.6-19.8,11.5-29.6c0.7,0,1.5-0.1,2.3-0.2c0.5-0.1,1.1-0.2,1.6-0.3h0.2
			c2.3-7.8,4.9-15.6,6.9-23.5c10.9-43,22.9-85.7,31.9-129.1c6.3-30,9.1-60.8,12.5-91.3c2.1-18.7,2.8-37.5,3.7-56.2
			c1.1-23.4,1.7-46.9,2.5-70.2h97.3c0.4,2,0.9,4,1.3,6.1c0.5,2.2,0.8,4.4,0.9,6.7c1,25.8,0.7,51.7,2.7,77.4
			c4.8,62.1,12.8,123.9,28.2,184.3c7.2,28.1,16,55.7,23.8,83.6c1,3.6,0.4,7.7,0.5,11.6h-1.4l-0.1,0.3c0.5,0.2,1.1,0.3,1.6,0.5
			c1.1,1.5,2.7,2.9,3.3,4.7c25.7,74.6,62.7,143.9,100.9,212.5c24.3,43.6,49.3,86.9,66.9,133.7c0.1,0.5,0.2,1,0.4,1.5
			c2.3,6.8,4.6,13.5,7,20.3c-0.1,0.2-0.2,0.4-0.2,0.5c0,0.1,0.1,0.2,0.2,0.3c0.1,0.2,0.2,0.4,0.3,0.6c0,0.2,0.1,0.3,0.1,0.5
			c3.1,13.8,6.1,27.7,9.3,41.5c-0.1,0.2-0.3,0.3-0.2,0.5c0.1,0.3,0.3,0.7,0.4,1c0.7,9.6,1.4,19.2,2.2,28.8c-0.1,0.1-0.3,0.3-0.3,0.4
			c0.1,0.4,0.3,0.7,0.4,1v2.5h-0.7c-0.1,3.2-0.3,6.4-0.4,9.6h6.8l-11,500.1h-11.8c-1.8,64.3-3.6,114-5.5,129
			c-4.8,37.6-10.1,75.2-13.5,112.9c-5.2,57.9-6.1,115.9-2.6,174c3.4,56.7,15.9,111.8,26.1,167.5c3.6,19.7,5.5,39.7,8.1,59.5
			c0.1,0.3,0.3,0.6,0.4,1c0,0.1-0.2,0.3-0.3,0.4c0.6,5.6,1.3,11.1,1.9,16.6c0,0.9,0.1,1.7,0.2,2.6
			C1472.5,2220.8,1472.8,2225.2,1473.1,2229.5z"/>
		<path id="shine" class="st4" d="M961.8,1106.8h-3.5c-13.2,0-23.9,10.7-23.9,23.9v346.2c0,13.2,10.7,23.9,23.9,23.9h3.5
			c13.2,0,23.9-10.7,23.9-23.9v-346.2C985.7,1117.5,975,1106.8,961.8,1106.8z"/>
	</g>
	<path id="cap" class="st2 red" d="M1415.3,159.5c0,0.3,0.2,0.5,0.3,0.8c0,1.2,0,2.5,0,3.7c-0.1,0.1-0.3,0.2-0.3,0.3
		c0,0.2,0.2,0.5,0.3,0.8c-0.6,8.5-1.2,17-1.8,25.5c-0.4,1.2-0.7,2.3-1.1,3.5c-7.5,18.4-22.2,26.1-40.9,27.8h-213.2
		c-7.3,0-14.7-0.2-22.1-0.3c-0.4,0-0.9-0.1-1.4-0.1c-1.9,0-3.9,0.1-5.8,0.1c-8.9-3.6-18.8-5.8-26.6-11.1c-9.4-6.3-14.2-17-14.3-28.6
		c-0.1-18.4-1.3-37.1,1.3-55.2c4.4-31,22.8-52.2,51.7-64.1c1.1-0.4,2.2-0.7,3.2-1.1c4-1,7.9-2,11.9-3c0.5-0.1,1-0.3,1.5-0.4
		c13.3-0.1,103.6-1,135.5-1.2c15.8-0.1,31.6,0.2,47.4,0.3c0.6,0.1,1.3,0.2,1.9,0.4c0.4,0.1,0.8,0.2,1.3,0.3c0.9,0.1,1.8,0.2,2.7,0.3
		c44.4,10.1,67.4,40.1,68.9,90.1c0.1,3.6,0,7.2,0,10.8C1415.4,159.3,1415.3,159.4,1415.3,159.5z"/>
</g>
</svg>
