<?xml version="1.0" encoding="utf-8"?>
<!-- Generator: Adobe Illustrator 27.4.1, SVG Export Plug-In . SVG Version: 6.00 Build 0)  -->
<svg version="1.1" id="squirrel" xmlns="http://www.w3.org/2000/svg" xmlns:xlink="http://www.w3.org/1999/xlink" x="0px" y="0px"
	 viewBox="0 0 2500 2500" style="enable-background:new 0 0 2500 2500;" xml:space="preserve">
<style type="text/css">
	.st0{fill:#C68554;}
	.st1{opacity:0.5;fill:#FFFFFF;}
	.st2{fill:#1E0E0E;}
	.st3{opacity:0.25;fill:#FFFFFF;}
	.st4{opacity:0.5;fill:#FFFFFF;enable-background:new    ;}
	.st5{opacity:0.5;fill:#E2B7BC;enable-background:new    ;}
	.st6{fill:#FFFFFF;}
	.st7{fill:#F7D7BF;}
	.st8{opacity:0.15;fill:#FFFFFF;}
	.st9{opacity:0.15;fill:#F8F6F9;enable-background:new    ;}

	<!-- Custom CSS for animations and other elements goes here-->
	#squirrel {
		cursor: pointer;
	}

	#squirrel:hover #squirrel {
		animation: squirrel .6s ease-in-out infinite alternate;
		transform-box: fill-box;
		transform-origin: center;
	}

	#squirrel:hover #eyes {
		animation: blink 2s ease-in-out infinite;
		transform-box: fill-box;
		transform-origin: center;
	}

	#squirrel:hover #nose {
		animation: noseShrink 2s ease-in-out infinite;
		transform-box: fill-box;
		transform-origin: bottom;
	}

	#squirrel:hover .teeth  {
		animation: noseShrink 2s ease-in-out infinite;
		transform-box: fill-box;
		transform-origin: bottom;
	}
	
	#squirrel:hover #face {
		fill: #AA3A3B;
	}

	#squirrel:hover .mouth_1 {
		fill: #D6AEAE;
	}

	#squirrel:hover .st5 {
		fill: #FFd27c;
		opacity: .3;
	}

	#face {
		transition: .2s ease-in-out fill;
	}

	.mouth_1 {
		transition: .2s ease-in-out fill;
	}

	.st5 {
		transition: .2s ease-in-out fill;
	}

	@keyframes blink {
		50% {transform: rotateX(0deg)}
		55% {transform: rotateX(0deg)}
		60% {transform: rotateX(100deg)}
		65% {transform: rotateX(0deg)}
		75% {transform: rotateX(0deg)}
		80% {transform: rotateX(100deg)}
		100% {transform: rotateX(0deg)}
	}

	@keyframes squirrel {
		0% {
			scale: 100%;
		}
		100% {
			scale: 95%;
		}
	}

	@keyframes noseShrink {
		0% {transform: translateY(0)}
		10% {transform: translateY(-40px)}
		15% {transform: translateY(-50px)}
		20% {transform: translateY(0)}
		30% {transform: translateY(-40px)}
		35% {transform: translateY(-50px)}
		45% {transform: translateY(0)}
		50% {transform: translateY(-40px)}
		55% {transform: translateY(-50px)}
		65% {transform: translateY(0)}
		100% {transform: translateY(0)}
	}
</style>

<!-- Javascript is scripted inside the .svg file -->
<script>
	const squirrel = document.querySelector("#squirrel");

	function logIdSquirrel() {
		console.log("User clicked on " + this.id);
	}

	squirrel.addEventListener("click", logIdSquirrel);
</script>
<g id="squirrel">
	<path id="face" class="st0" d="M2433.2,1817.3c-1.8-108.3-30.4-210.1-79.7-298.9c-22-39.8-48.1-77-77.7-111
		c-9.9-11.3-20.2-22.3-30.8-32.9c-25.4-25.4-53-48.7-82.5-69.5c3-32.7,4.6-66,4.6-99.6c0-3.5-0.1-6.8-0.1-10
		c-0.1-1.8-0.1-3.8-0.1-5.9c-0.1-2.1-0.2-4.4-0.2-6.8c-0.1-1-0.1-2-0.2-2.9c0-1-0.1-2.1-0.1-3.1c-0.1-1.1-0.1-2.2-0.1-3.3
		c-0.6-14.3-1.8-32.4-3.7-53.6h-0.1v0.1c-3.4,3.8-6.9,7.6-10.5,11.5c3.6-3.8,7.1-7.7,10.5-11.6c335.8-380.8,26.2-998.1-17.1-1079.6
		c-3.1-5.9-4.9-9-4.9-9c-197.8,0-380.4,206.3-477.8,339.8h-0.1c-42.3-17.6-86.4-32.3-131.8-44.1c-19.2-5-38.5-9.4-58.1-13.2
		c-207.3-41.2-434-21.9-628.5,64.4c-47.1-65.2-115.6-149.8-197-219.1C566.1,89.6,471.9,35.5,373.7,31.3c-4.1-0.1-8.2-0.3-12.3-0.3
		c0,0-381.3,679.2-22.9,1087.6h-0.1c-0.2,1.6-0.4,3.6-0.6,5.8c-0.2,2-0.4,4.1-0.7,6.5c-0.5,5.1-1,11.2-1.5,18.1
		c-0.2,1.8-0.3,3.7-0.5,5.7c-0.2,2.9-0.3,5.6-0.5,8.3c-0.1,1.8-0.2,3.6-0.3,5.5c-0.1,2.4-0.3,4.9-0.4,7.5c-0.1,1.1-0.1,2.2-0.1,3.3
		c-0.2,3.8-0.4,8-0.5,12.1c-0.1,1.4-0.1,2.9-0.2,4.4v0.8c-0.1,0.8-0.1,1.6-0.1,2.3c-0.1,2.1-0.1,4.2-0.1,6.3
		c-0.6,34.7,0.7,68.2,3.5,100.5c-83.3,59.3-151.9,138-199.1,229.5c-45.1,87.7-70.7,187.2-70.7,292.6c0,61.5,8.6,121,24.9,177.3
		c14.2,49.5,34.3,96.5,59.4,140.3c0.8,1.4,1.6,2.7,2.4,4.1c9.3,15.9,19.2,31.4,29.8,46.4c5.9,8.5,12.1,16.7,18.4,24.8
		c1.6,2.1,3.2,4.2,4.9,6.1c6.4,8.2,13.2,16.2,20.1,24c2.3,2.6,4.6,5.2,7,7.8c7,7.8,14.2,15.2,21.5,22.6c4.7,4.7,9.4,9.3,14.2,13.8
		c65,60.9,142.7,108.6,228.9,138.5c66.2,23,137.3,35.5,211.3,35.5h1081.3c3.4,0,6.8-0.1,10.2-0.1c3.4-0.1,6.8-0.1,10.2-0.2
		c0.5,0,0.9,0,1.4-0.1c89.6-3,174.5-24.2,251.1-60.2c61.8-28.9,118.1-67.4,167.2-113.5c13.6-12.7,26.6-26,39-39.8
		c1.2-1.5,2.6-3,3.9-4.5c3-3.4,6-6.8,8.9-10.3c3.2-3.8,6.4-7.7,9.5-11.6c4.1-5.1,8.2-10.3,12.2-15.6c2.2-2.9,4.4-5.8,6.4-8.7
		c0.6-0.8,1.1-1.5,1.6-2.3c6.4-8.8,12.6-17.8,18.5-27c1.2-1.9,2.4-3.8,3.6-5.7c2.4-3.7,4.7-7.4,7-11.2c1.3-2.1,2.5-4.2,3.8-6.4
		c24.5-41.6,44.4-86.2,59-133.1c16.6-53,26.4-109,28.6-166.9c0.2-3.8,0.3-7.8,0.3-11.6c0.1-4.2,0.1-8.3,0.1-12.4
		C2433.3,1824.3,2433.3,1820.8,2433.2,1817.3z"/>
	<path id="bottom" class="st1" d="M2082.7,2238.9v80.7c0,32.1-6.9,62.2-19.1,88.7c-76.6,36-161.6,57.2-251.1,60.2
		c-0.4,0.1-0.9,0.1-1.4,0.1c-3.4,0.1-6.8,0.2-10.2,0.2c-3.4,0.1-6.8,0.1-10.2,0.1H709.4c-74.1,0-145.1-12.5-211.4-35.5
		c-20.7-31.7-32.9-71.1-32.9-113.8v-80.7c1.7-46.1,9.8-85.8,21.4-120c121.7-358.8,711.7-360.1,746.7-359.8
		c53.2-0.7,706.4-2,830,372.8C2073.6,2163.4,2080.7,2198.9,2082.7,2238.9z"/>
	<g id="eyes">
		<g id="right">
			<ellipse class="st2" cx="1827.6" cy="1182.2" rx="117.5" ry="229.4"/>
			<ellipse class="st3" cx="1826.5" cy="1094" rx="34.5" ry="88.2"/>
		</g>
		<g id="left">
			<ellipse class="st2" cx="654.5" cy="1182.2" rx="117.5" ry="229.4"/>
			<ellipse class="st3" cx="650.8" cy="1094" rx="34.5" ry="88.2"/>
		</g>
	</g>
	<g id="ears">
		<path class="st4" d="M2162.6,1119.7c-0.1-1.1-0.3-2.3-0.4-3.5v-1c-5.4-55.9-16.6-131.7-39.8-214v-0.1c-2-7.3-4.2-14.7-6.4-22
			c-0.5-1.5-0.9-2.9-1.4-4.4c-23.4-75.7-57.3-155.6-106.3-229.1c-15.7-23.7-33-46.7-52-68.7c-8.8-10.2-18-20.2-27.5-29.8
			c11.1-246.9,99.8-448.8,216.7-507C2188.7,121.5,2498.4,738.9,2162.6,1119.7z"/>
		<path class="st4" d="M610.3,531.8c-40.4,38-74.9,78.6-104.3,120.4c-48.6,68.8-83.4,140.6-108.5,209.1c-2.1,5.9-4.2,11.7-6.3,17.5
			c-2.3,6.7-4.5,13.4-6.7,20.1c-26.2,81.3-39,155.8-45.3,212.3c-0.3,2.3-0.5,4.8-0.8,7.2v0.3C-20,710.2,361.3,31,361.3,31
			c4.1,0,8.2,0.1,12.3,0.3C498.2,74,595.4,277.6,610.3,531.8z"/>
		<path class="st2" d="M506,652.2c-48.6,68.8-83.4,140.6-108.5,209.1c-2.1,5.9-4.2,11.7-6.3,17.5c-35-185.1,44.1-406.1,44.1-406.1
			c1.2,0,2.4,0.1,3.7,0.1C470.3,489.7,495.8,559.7,506,652.2z"/>
		<path class="st2" d="M2125.8,740.8c0,48.7-4.1,94.4-11.2,133.9c-23.4-75.7-57.3-155.6-106.3-229.1
			c15.5-98.5,42.2-172.8,42.2-172.8c1.2,0,2.4,0.1,3.7,0.1C2094.8,494.7,2125.8,606.4,2125.8,740.8z"/>
	</g>
	<g id="cheeks">
		<ellipse class="st5" cx="370" cy="1778" rx="185.2" ry="213.5"/>
		<ellipse class="st5" cx="2150" cy="1778" rx="185.2" ry="213.5"/>
	</g>
	<g id="mouth">
		<path class="st6 teeth" d="M1363.9,1999.9h-76.4c-13.6,0-71.4,0-85.3,0h-76.4c-18,0-32.6,25.1-32.6,56v169.6c0,30.9,14.6,56,32.6,56
			h76.4c18,0,42.1-32.5,42.1-32.5s25.2,32.5,43.2,32.5h76.4c18,0,32.6-25.1,32.6-56v-169.6C1396.5,2025,1381.9,1999.9,1363.9,1999.9
			z"/>
		<path class="st7 mouth_1" d="M1349.8,1766.1c-46.6,12.9-85.3,32.5-107.6,59c-21.6-25.7-58.7-44.9-103.5-57.8
			c-162.2-46.7-425.9-9.4-425.9,111.9c0,175.1,123.1,317,275,317c2.1,0,4.2,0,6.2-0.1c112.1-2.9,207.6-83.1,248.1-196.2
			c40.9,114.3,138.1,195.1,251.8,196.3l0,0c0.8,0,1.7,0,2.5,0c151.9,0,275-141.9,275-317C1771.5,1758.9,1512.3,1721.3,1349.8,1766.1
			z"/>
	</g>
	<g id="nose">
		<path class="st2" d="M1468,1690.4c0,95.3-80.6,251.9-187.9,291c-16.1,5.9-32.7,9.1-49.8,9.1c-131.2,0-231.9-196.5-231.9-306.1
			c0-10.1,3-31.5,14-55.4c37.3-81.3,134.8-98.1,192.3-100.8c20.3-0.9,35.7-0.1,41.6,0.2c33.2,1.7,164.6,8.4,208.6,108.1
			C1456.8,1640.9,1468,1661.4,1468,1690.4z"/>
		<path class="st8" d="M1468,1690.4c0,95.3-80.6,251.9-187.9,291c-104.7-13.5-186.1-115.8-186.1-240.2
			c0-92.2,44.7-172.3,110.6-213.1c20.3-0.9,35.7-0.1,41.6,0.2c33.2,1.7,164.6,8.4,208.6,108.1
			C1456.8,1640.9,1468,1661.4,1468,1690.4z"/>
	</g>
	<path id="lights" class="st9" d="M2433.2,1827.8c0,4.2-0.1,8.3-0.1,12.4c-0.1,3.8-0.2,7.8-0.3,11.6c-2.1,57.9-12,113.9-28.6,166.9
		c-14.6,46.9-34.5,91.5-59,133.1c-1.2,2.2-2.5,4.2-3.8,6.4c-2.3,3.8-4.6,7.5-7,11.2c-1.1,1.9-2.4,3.8-3.6,5.7
		c-6,9.2-12.1,18.2-18.5,27c-0.5,0.8-1.1,1.5-1.6,2.3c-2,2.9-4.2,5.9-6.4,8.7c-4,5.3-8,10.4-12.2,15.6c-3.1,3.9-6.3,7.8-9.5,11.6
		c-2.9,3.5-5.9,6.9-8.9,10.3c-1.3,1.5-2.7,3-3.9,4.5c-12.4,13.8-25.4,27.1-39,39.8c-49.1,46.1-105.4,84.5-167.2,113.5
		c-76.6,36-161.5,57.2-251.1,60.2c-0.5,0.1-0.9,0.1-1.4,0.1c-3.4,0.1-6.8,0.1-10.2,0.2c-3.4,0.1-6.8,0.1-10.2,0.1h-509.8
		c-65.6,0-128.7-12.5-187.4-35.5c-76.3-29.9-145.2-77.6-202.8-138.5c-4.3-4.6-8.5-9.1-12.6-13.8c-6.5-7.4-12.9-14.9-19.1-22.6
		c-2.1-2.5-4.1-5.1-6.2-7.8c-6.1-7.8-12-15.8-17.8-24c-1.4-2-2.8-4-4.2-6.1c-5.7-8.1-11.1-16.4-16.4-24.8
		c-9.3-15-18.2-30.5-26.4-46.4c-0.7-1.4-1.4-2.7-2.1-4.1c-22.2-43.8-40-90.8-52.6-140.3c-14.4-56.2-22-115.7-22-177.3
		c0-105.4,22.6-204.8,62.6-292.6c41.8-91.4,102.6-170.2,176.5-229.5c-2.5-32.3-3.7-65.8-3.2-100.5c0.1-2.1,0.1-4.2,0.2-6.3
		c0-0.8,0-1.6,0.1-2.3v-0.8c0-1.5,0.1-3,0.1-4.4c0.1-4.2,0.3-8.3,0.5-12.1c0-1.1,0.1-2.2,0.1-3.3c0.1-2.6,0.2-5.1,0.3-7.5
		c0.1-1.9,0.2-3.7,0.3-5.5c0.2-2.7,0.3-5.4,0.5-8.3c0.2-2,0.3-3.8,0.4-5.7c0.5-6.8,1-12.9,1.4-18.1c0.2-2.3,0.4-4.5,0.6-6.5
		c0.2-2.2,0.3-4.2,0.5-5.8v-0.3c0.2-2.4,0.5-4.8,0.7-7.2c5.7-56.4,17-131,40.2-212.3c3.6-12.4,7.3-25,11.5-37.6
		c36.5-112.4,96.4-233.9,194.6-335.8c59.6-61.7,128-110.8,201.6-147.6c42-21,85.7-38,130.4-51.2c45.3,11.7,89.5,26.5,131.8,44.1h0.1
		c114.8,47.8,216.5,116.9,293.4,206c79.4,92,128.8,200.9,159.7,302.3c2.2,7.4,4.4,14.7,6.4,22v0.1c23.2,82.2,34.4,158.1,39.8,214v1
		c0.1,1.2,0.3,2.3,0.4,3.4v0.1c1.9,21.2,3.1,39.2,3.7,53.6c0,1,0.1,2.2,0.1,3.3c0.1,1,0.1,2.1,0.2,3.1c0,1,0.1,2,0.1,2.9
		c0,2.4,0.1,4.7,0.2,6.8c0.1,2.1,0.1,4.1,0.1,5.9c0.1,3.2,0.1,6.5,0.1,10c0,33.7-1.6,66.9-4.6,99.6h0.1c29.5,20.9,57,44.2,82.5,69.5
		c10.6,10.6,20.9,21.6,30.8,32.9c29.6,34,55.7,71.2,77.7,111c49.2,88.9,77.9,190.7,79.7,298.9
		C2433.2,1820.8,2433.2,1824.3,2433.2,1827.8z"/>
</g>
</svg>
